<?xml version="1.0" encoding="UTF-8" standalone="no"?>
<svg
   xmlns:dc="http://purl.org/dc/elements/1.1/"
   xmlns:cc="http://creativecommons.org/ns#"
   xmlns:rdf="http://www.w3.org/1999/02/22-rdf-syntax-ns#"
   xmlns:svg="http://www.w3.org/2000/svg"
   xmlns="http://www.w3.org/2000/svg"
   id="svg1"
   version="1.1"
   viewBox="0 0 8 5"
   height="5"
   width="8">
  <g
     id="g1">
    <rect
       id="rect1"
       y="0"
       x="0"
       height="5"
       width="8"
       style="opacity:0;fill:none;stroke:none;" />
    <path
       id="path1"
       d="M 5.7941772,1.0317446 A 2.2408359,4.451414 0 0 0 3.5894485,4.707204 H 8 A 2.2408359,4.451414 0 0 0 5.7941772,1.0317446 Z"
       style="fill:#213f14;stroke:none;" />
    <path
       id="path2"
       d="m 3.3042648,-1e-7 A 3.3583793,6.0555884 0 0 0 0,4.9999999 h 6.6101694 a 3.3583793,6.0555884 0 0 0 -3.3059046,-5 z"
       style="fill:#2c541b;stroke:none;" />
    <path
       id="path3"
       d="M 3.3050847,0 C 3.1184376,0.00368 2.9167604,0.041115 2.7068987,0.1035156 a 3.3583793,6.0555884 0 0 0 -0.027973,0.00586 c -0.071459,0.02202 -0.1484287,0.065352 -0.2216299,0.09375 A 3.3583793,6.0555884 0 0 0 0,5 h 1.5363479 c 0,0 0.031618,-3.3358684 1.7687368,-5 z"
       style="fill:#447821;stroke:none;" />
  </g>
</svg>
