<?xml version="1.0" encoding="UTF-8" standalone="no"?>
<svg
   xmlns:dc="http://purl.org/dc/elements/1.1/"
   xmlns:cc="http://creativecommons.org/ns#"
   xmlns:rdf="http://www.w3.org/1999/02/22-rdf-syntax-ns#"
   xmlns:svg="http://www.w3.org/2000/svg"
   xmlns="http://www.w3.org/2000/svg"
   id="svg1"
   version="1.1"
   viewBox="0 0 8 8"
   height="8"
   width="8">
  <g
     id="g1">
    <rect
       id="rect1"
       y="0"
       x="0"
       height="8"
       width="8"
       style="opacity:0;fill:none;stroke:none;" />
    <path
       id="path1"
       d="M 5.7941772,1.6507914 A 2.2408359,7.1222624 0 0 0 3.5894485,7.5315264 H 8 A 2.2408359,7.1222624 0 0 0 5.7941772,1.6507914 Z"
       style="fill:#5b6b62;stroke:none" />
    <path
       id="path2"
       d="M 5.794179,1.6507949 A 2.1166165,6.1064495 0 0 0 4.3158009,3.3975213 L 4.5656851,4.0093063 5.1134604,3.1414825 5.8077195,4.8106587 6.4355069,2.9937678 6.742015,3.7151079 7.1149946,2.9937678 A 2.1166165,6.1064495 0 0 0 5.794179,1.6507949 Z"
       style="fill:#c7c5b7;stroke:none;" />
    <path
       id="path3"
       d="M 3.3042648,-2e-7 A 3.3583793,9.6889414 0 0 0 0,7.9999998 h 6.6101694 a 3.3583793,9.6889414 0 0 0 -3.3059046,-8 z"
       style="fill:#768b7f;stroke:none;" />
    <path
       id="path4"
       d="M 3.3050847,0 C 3.1184376,0.00589 2.9167604,0.065784 2.7068987,0.165625 a 3.3583793,9.6889414 0 0 0 -0.027973,0.00938 c -0.071459,0.035232 -0.1484287,0.1045632 -0.2216299,0.15 A 3.3583793,9.6889414 0 0 0 0,8 h 1.5363479 c 0,0 0.031618,-5.3373894 1.7687368,-8 z"
       style="fill:#a3b1a9;stroke:none;" />
    <path
       id="path5"
       d="M 3.3046875,-2e-7 A 3.3583793,9.6889414 0 0 0 0.95898438,2.7714842 L 1.3554688,3.7421873 2.2246094,2.3652342 3.3261719,5.0136717 4.3222656,2.1308592 4.8085938,3.2753904 5.4003906,2.1308592 A 3.3583793,9.6889414 0 0 0 3.3046875,-2e-7 Z"
       style="fill:#e3e2db;stroke:none;" />
  </g>
</svg>
