<?xml version="1.0" encoding="UTF-8" standalone="no"?>
<svg
   xmlns:dc="http://purl.org/dc/elements/1.1/"
   xmlns:cc="http://creativecommons.org/ns#"
   xmlns:rdf="http://www.w3.org/1999/02/22-rdf-syntax-ns#"
   xmlns:svg="http://www.w3.org/2000/svg"
   xmlns="http://www.w3.org/2000/svg"
   xmlns:xlink="http://www.w3.org/1999/xlink"
   id="svg1"
   version="1.1"
   viewBox="0 0 16 12"
   height="12"
   width="16">
  <g
     id="g1">
    <rect
       style="opacity:0;fill:none;stroke:none"
       width="16"
       height="12"
       x="0"
       y="0"
       id="rect1" />
    <path
       style="fill:#d38d5f;stroke:none"
       d="m 4.5,2.6804688 v 6.4195314 h 7 V 2.6804688 h -1 v 1.21875 h -1 v -1.21875 h -1 v 1.21875 h -1 v -1.21875 h -1 v 1.21875 h -1 v -1.21875 z"
       id="rect5075" />
    <use
       height="100%"
       width="100%"
       transform="translate(10.5,-7.8)"
       id="use5117"
       xlink:href="#rect4768"
       y="0"
       x="0" />
    <use
       x="0"
       y="0"
       xlink:href="#rect4768"
       id="use5113"
       transform="translate(8.5,-7.8)"
       width="100%"
       height="100%" />
    <use
       height="100%"
       width="100%"
       transform="translate(6.5,-7.8)"
       id="use5109"
       xlink:href="#rect4768"
       y="0"
       x="0" />
    <use
       x="0"
       y="0"
       xlink:href="#rect4768"
       id="use5105"
       transform="translate(4.5,-7.8)"
       width="100%"
       height="100%" />
    <use
       height="100%"
       width="100%"
       transform="matrix(-1,0,0,1,11.5,-6.5)"
       id="use5101"
       xlink:href="#rect4768"
       y="0"
       x="0" />
    <use
       x="0"
       y="0"
       xlink:href="#rect4768"
       id="use5103"
       transform="translate(9.5,-6.5)"
       width="100%"
       height="100%" />
    <use
       x="0"
       y="0"
       xlink:href="#rect4768"
       id="use5097"
       transform="matrix(-1,0,0,1,9.5,-6.5)"
       width="100%"
       height="100%" />
    <use
       height="100%"
       width="100%"
       transform="translate(7.5,-6.5)"
       id="use5099"
       xlink:href="#rect4768"
       y="0"
       x="0" />
    <use
       height="100%"
       width="100%"
       transform="matrix(-1,0,0,1,7.5,-6.5)"
       id="use5093"
       xlink:href="#rect4768"
       y="0"
       x="0" />
    <use
       x="0"
       y="0"
       xlink:href="#rect4768"
       id="use5095"
       transform="translate(5.5,-6.5)"
       width="100%"
       height="100%" />
    <use
       x="0"
       y="0"
       xlink:href="#rect4768"
       id="use5091"
       transform="matrix(-1,0,0,1,5.5,-6.5)"
       width="100%"
       height="100%" />
    <use
       x="0"
       y="0"
       xlink:href="#rect4768"
       id="use5089"
       transform="translate(10.5,-5.2)"
       width="100%"
       height="100%" />
    <use
       x="0"
       y="0"
       xlink:href="#rect4768"
       id="use5087"
       transform="matrix(-1,0,0,1,10.5,-5.2)"
       width="100%"
       height="100%" />
    <use
       height="100%"
       width="100%"
       transform="translate(8.5,-5.2)"
       id="use5085"
       xlink:href="#rect4768"
       y="0"
       x="0" />
    <use
       x="0"
       y="0"
       xlink:href="#rect4768"
       id="use5169"
       transform="matrix(-1,0,0,1,8.5,-5.2)"
       width="100%"
       height="100%" />
    <use
       height="100%"
       width="100%"
       transform="translate(6.5,-5.2)"
       id="use5167"
       xlink:href="#rect4768"
       y="0"
       x="0" />
    <use
       height="100%"
       width="100%"
       transform="matrix(-1,0,0,1,6.5,-5.2)"
       id="use5165"
       xlink:href="#rect4768"
       y="0"
       x="0" />
    <use
       x="0"
       y="0"
       xlink:href="#rect4768"
       id="use5163"
       transform="translate(4.5,-5.2)"
       width="100%"
       height="100%" />
    <use
       height="100%"
       width="100%"
       transform="translate(4)"
       id="use5335"
       xlink:href="#path5171"
       y="0"
       x="0" />
    <use
       x="0"
       y="0"
       xlink:href="#path5171"
       id="use5333"
       transform="translate(2)"
       width="100%"
       height="100%" />
    <path
       style="fill:#000000;stroke:none"
       d="m 5.8496094,4.5 a 0.5,0.5 0 0 0 -0.5,0.5 v 1 h 1 V 5 a 0.5,0.5 0 0 0 -0.5,-0.5 z"
       id="path5171" />
    <use
       height="100%"
       width="100%"
       transform="matrix(-1,0,0,1,11.5,-3.9)"
       id="use5159"
       xlink:href="#rect4768"
       y="0"
       x="0" />
    <use
       x="0"
       y="0"
       xlink:href="#rect4768"
       id="use5161"
       transform="translate(9.5,-3.9)"
       width="100%"
       height="100%" />
    <use
       x="0"
       y="0"
       xlink:href="#rect4768"
       id="use5155"
       transform="matrix(-1,0,0,1,9.5,-3.9)"
       width="100%"
       height="100%" />
    <use
       height="100%"
       width="100%"
       transform="translate(7.5,-3.9)"
       id="use5157"
       xlink:href="#rect4768"
       y="0"
       x="0" />
    <use
       height="100%"
       width="100%"
       transform="matrix(-1,0,0,1,7.5,-3.9)"
       id="use5151"
       xlink:href="#rect4768"
       y="0"
       x="0" />
    <use
       x="0"
       y="0"
       xlink:href="#rect4768"
       id="use5153"
       transform="translate(5.5,-3.9)"
       width="100%"
       height="100%" />
    <use
       x="0"
       y="0"
       xlink:href="#rect4768"
       id="use5149"
       transform="matrix(-1,0,0,1,5.5,-3.9)"
       width="100%"
       height="100%" />
    <path
       id="path5419"
       d="M 12.351562,8.0507812 13,7.4003906 14.648438,9.0507812 15,8.6992188 l -2,-2 -1,1 z"
       style="fill:#502d16;stroke:none" />
    <path
       style="fill:#ffe6d5;stroke:none"
       d="m 13,7.4003906 -0.648438,0.6503906 v 2.3476568 h 2.296876 V 9.0507812 Z"
       id="rect5691" />
    <use
       x="0"
       y="0"
       xlink:href="#path5419"
       id="use5708"
       transform="translate(-2)"
       width="100%"
       height="100%" />
    <use
       x="0"
       y="0"
       xlink:href="#rect5691"
       id="use5710"
       transform="translate(-2)"
       width="100%"
       height="100%" />
    <use
       height="100%"
       width="100%"
       transform="translate(-4)"
       id="use5712"
       xlink:href="#path5419"
       y="0"
       x="0" />
    <use
       height="100%"
       width="100%"
       transform="translate(-4)"
       id="use5714"
       xlink:href="#rect5691"
       y="0"
       x="0" />
    <use
       x="0"
       y="0"
       xlink:href="#path5419"
       id="use5716"
       transform="translate(-6)"
       width="100%"
       height="100%" />
    <use
       x="0"
       y="0"
       xlink:href="#rect5691"
       id="use5718"
       transform="translate(-6)"
       width="100%"
       height="100%" />
    <use
       height="100%"
       width="100%"
       transform="translate(-8)"
       id="use5720"
       xlink:href="#path5419"
       y="0"
       x="0" />
    <use
       height="100%"
       width="100%"
       transform="translate(-8)"
       id="use5722"
       xlink:href="#rect5691"
       y="0"
       x="0" />
    <use
       x="0"
       y="0"
       xlink:href="#path5419"
       id="use5724"
       transform="translate(-10)"
       width="100%"
       height="100%" />
    <use
       x="0"
       y="0"
       xlink:href="#rect5691"
       id="use5726"
       transform="translate(-10)"
       width="100%"
       height="100%" />
    <use
       height="100%"
       width="100%"
       transform="translate(-12)"
       id="use5728"
       xlink:href="#path5419"
       y="0"
       x="0" />
    <use
       height="100%"
       width="100%"
       transform="translate(-12)"
       id="use5730"
       xlink:href="#rect5691"
       y="0"
       x="0" />
    <path
       id="rect4806"
       d="M 0,6.5 V 9.0996094 12 H 16 V 9.0996094 6.5 H 14 V 9.0996094 H 10.150391 V 7.8007812 H 5.8496094 V 9.0996094 H 2 V 6.5 Z"
       style="fill:#d38d5f;stroke:none" />
    <use
       x="0"
       y="0"
       xlink:href="#rect4768"
       id="use5022"
       transform="translate(15,-3.9)"
       width="100%"
       height="100%" />
    <use
       x="0"
       y="0"
       xlink:href="#rect4768"
       id="use5020"
       transform="matrix(-1,0,0,1,15,-3.9)"
       width="100%"
       height="100%" />
    <use
       height="100%"
       width="100%"
       transform="translate(1,-3.9)"
       id="use4984"
       xlink:href="#rect4768"
       y="0"
       x="0" />
    <use
       height="100%"
       width="100%"
       transform="matrix(-1,0,0,1,1,-3.9)"
       id="use4982"
       xlink:href="#rect4768"
       y="0"
       x="0" />
    <use
       x="0"
       y="0"
       xlink:href="#rect4768"
       id="use5018"
       transform="matrix(-1,0,0,1,16,-2.6)"
       width="100%"
       height="100%" />
    <use
       height="100%"
       width="100%"
       transform="translate(14,-2.6)"
       id="use5016"
       xlink:href="#rect4768"
       y="0"
       x="0" />
    <use
       height="100%"
       width="100%"
       transform="matrix(-1,0,0,1,10,-2.6)"
       id="use4914"
       xlink:href="#rect4768"
       y="0"
       x="0" />
    <use
       x="0"
       y="0"
       xlink:href="#rect4768"
       id="use4912"
       transform="translate(8,-2.6)"
       width="100%"
       height="100%" />
    <use
       x="0"
       y="0"
       xlink:href="#rect4768"
       id="use4910"
       transform="matrix(-1,0,0,1,8,-2.6)"
       width="100%"
       height="100%" />
    <use
       height="100%"
       width="100%"
       transform="translate(6,-2.6)"
       id="use4908"
       xlink:href="#rect4768"
       y="0"
       x="0" />
    <use
       height="100%"
       width="100%"
       transform="matrix(-1,0,0,1,2,-2.6)"
       id="use4980"
       xlink:href="#rect4768"
       y="0"
       x="0" />
    <use
       x="0"
       y="0"
       xlink:href="#rect4768"
       id="use4978"
       transform="translate(0,-2.6)"
       width="100%"
       height="100%" />
    <use
       height="100%"
       width="100%"
       transform="translate(15,-1.3)"
       id="use4906"
       xlink:href="#rect4768"
       y="0"
       x="0" />
    <use
       height="100%"
       width="100%"
       transform="matrix(-1,0,0,1,15,-1.3)"
       id="use4900"
       xlink:href="#rect4768"
       y="0"
       x="0" />
    <use
       x="0"
       y="0"
       xlink:href="#rect4768"
       id="use4902"
       transform="translate(13,-1.3)"
       width="100%"
       height="100%" />
    <use
       x="0"
       y="0"
       xlink:href="#rect4768"
       id="use4896"
       transform="matrix(-1,0,0,1,13,-1.3)"
       width="100%"
       height="100%" />
    <use
       height="100%"
       width="100%"
       transform="translate(11,-1.3)"
       id="use4898"
       xlink:href="#rect4768"
       y="0"
       x="0" />
    <use
       height="100%"
       width="100%"
       transform="matrix(-1,0,0,1,11,-1.3)"
       id="use4892"
       xlink:href="#rect4768"
       y="0"
       x="0" />
    <use
       x="0"
       y="0"
       xlink:href="#rect4768"
       id="use4894"
       transform="translate(9,-1.3)"
       width="100%"
       height="100%" />
    <use
       height="100%"
       width="100%"
       transform="matrix(-1,0,0,1,7,-1.3)"
       id="use4884"
       xlink:href="#rect4768"
       y="0"
       x="0" />
    <use
       x="0"
       y="0"
       xlink:href="#rect4768"
       id="use4886"
       transform="translate(5,-1.3)"
       width="100%"
       height="100%" />
    <use
       x="0"
       y="0"
       xlink:href="#rect4768"
       id="use4880"
       transform="matrix(-1,0,0,1,5,-1.3)"
       width="100%"
       height="100%" />
    <use
       height="100%"
       width="100%"
       transform="translate(3,-1.3)"
       id="use4882"
       xlink:href="#rect4768"
       y="0"
       x="0" />
    <use
       height="100%"
       width="100%"
       transform="matrix(-1,0,0,1,3,-1.3)"
       id="use4876"
       xlink:href="#rect4768"
       y="0"
       x="0" />
    <use
       x="0"
       y="0"
       xlink:href="#rect4768"
       id="use4878"
       transform="translate(1,-1.3)"
       width="100%"
       height="100%" />
    <use
       x="0"
       y="0"
       xlink:href="#rect4768"
       id="use4872"
       transform="matrix(-1,0,0,1,1,-1.3)"
       width="100%"
       height="100%" />
    <use
       height="100%"
       width="100%"
       transform="matrix(-1,0,0,1,16,0)"
       id="use4870"
       xlink:href="#rect4768"
       y="0"
       x="0" />
    <use
       x="0"
       y="0"
       xlink:href="#rect4768"
       id="use4868"
       transform="translate(14)"
       width="100%"
       height="100%" />
    <use
       x="0"
       y="0"
       xlink:href="#rect4768"
       id="use4866"
       transform="matrix(-1,0,0,1,14,0)"
       width="100%"
       height="100%" />
    <use
       height="100%"
       width="100%"
       transform="translate(12)"
       id="use4864"
       xlink:href="#rect4768"
       y="0"
       x="0" />
    <use
       height="100%"
       width="100%"
       transform="matrix(-1,0,0,1,12,0)"
       id="use4862"
       xlink:href="#rect4768"
       y="0"
       x="0" />
    <use
       x="0"
       y="0"
       xlink:href="#rect4768"
       id="use4860"
       transform="translate(10)"
       width="100%"
       height="100%" />
    <use
       x="0"
       y="0"
       xlink:href="#rect4768"
       id="use4850"
       transform="matrix(-1,0,0,1,6,0)"
       width="100%"
       height="100%" />
    <use
       height="100%"
       width="100%"
       transform="translate(4)"
       id="use4848"
       xlink:href="#rect4768"
       y="0"
       x="0" />
    <use
       height="100%"
       width="100%"
       transform="matrix(-1,0,0,1,4,0)"
       id="use4846"
       xlink:href="#rect4768"
       y="0"
       x="0" />
    <use
       x="0"
       y="0"
       xlink:href="#rect4768"
       id="use4844"
       transform="translate(2)"
       width="100%"
       height="100%" />
    <use
       x="0"
       y="0"
       xlink:href="#rect4768"
       id="use4842"
       transform="matrix(-1,0,0,1,2,0)"
       width="100%"
       height="100%" />
    <path
       style="fill:#aa4400;stroke:none"
       d="m 0.34960938,10.699219 c -0.11079991,0 -0.19921876,0.09037 -0.19921876,0.201172 V 11.5 c 0,0.1108 0.0884188,0.199219 0.19921876,0.199219 H 1 v -1 z"
       id="rect4768" />
    <path
       style="fill:#2b1100;stroke:none"
       d="M 8,8.3 A 1.85,1.85 0 0 0 6.15,10.15 V 12 h 3.7 V 10.15 A 1.85,1.85 0 0 0 8,8.3 Z"
       id="rect4922" />
    <use
       x="0"
       y="0"
       xlink:href="#path4960"
       id="use4962"
       transform="matrix(-1,0,0,1,16.001406,0)"
       width="100%"
       height="100%" />
    <use
       x="0"
       y="0"
       xlink:href="#path4958"
       id="use4964"
       transform="matrix(-1,0,0,1,16.001406,0)"
       width="100%"
       height="100%" />
    <use
       x="0"
       y="0"
       xlink:href="#path4956"
       id="use4966"
       transform="matrix(-1,0,0,1,16.001406,0)"
       width="100%"
       height="100%" />
    <use
       x="0"
       y="0"
       xlink:href="#path4934"
       id="use4968"
       transform="matrix(-1,0,0,1,16.001406,0)"
       width="100%"
       height="100%" />
    <path
       style="fill:#803300;stroke:none"
       d="M 7.9082031,8.4902344 C 7.4939264,8.5133094 7.1256703,8.6901501 6.8476562,8.9589844 L 7.9082031,10.021484 Z"
       id="path4960" />
    <path
       style="fill:#803300;stroke:none"
       d="M 6.7226562,9.0957031 C 6.4843666,9.3838185 6.3365683,9.7492415 6.3359375,10.150391 h 1.4433594 z"
       id="path4958" />
    <path
       style="fill:#803300;stroke:none"
       d="m 6.3359375,10.335938 v 0.740234 h 1.5722656 v -0.740234 z"
       id="path4956" />
    <path
       style="fill:#803300;stroke:none"
       d="M 6.3359375,11.259766 V 12 h 1.5722656 v -0.740234 z"
       id="path4934" />
    <rect
       style="fill:#ffccaa;stroke:none"
       id="rect5748"
       width="3"
       height="2"
       x="8"
       y="0" />
    <rect
       style="fill:#28170b;stroke:none"
       id="rect5750"
       width="0.2"
       height="3.9"
       x="7.8"
       y="0" />
    <use
       height="100%"
       width="100%"
       transform="translate(-4.85,2.5)"
       id="use4841"
       xlink:href="#path5171"
       y="0"
       x="0" />
    <use
       x="0"
       y="0"
       xlink:href="#path5171"
       id="use4843"
       transform="translate(9.15,2.5)"
       width="100%"
       height="100%" />
  </g>
</svg>
