<?xml version="1.0" encoding="UTF-8" standalone="no"?>
<svg
   xmlns:dc="http://purl.org/dc/elements/1.1/"
   xmlns:cc="http://creativecommons.org/ns#"
   xmlns:rdf="http://www.w3.org/1999/02/22-rdf-syntax-ns#"
   xmlns:svg="http://www.w3.org/2000/svg"
   xmlns="http://www.w3.org/2000/svg"
   xmlns:sodipodi="http://sodipodi.sourceforge.net/DTD/sodipodi-0.dtd"
   xmlns:inkscape="http://www.inkscape.org/namespaces/inkscape"
   id="svg26"
   version="1.1"
   width="1423"
   height="505"
   sodipodi:docname="極私的小説論.svg"
   inkscape:version="0.92.4 (5da689c313, 2019-01-14)"
   inkscape:export-filename="C:\Users\camellia\Desktop\極私的小説論.png"
   inkscape:export-xdpi="202.38931"
   inkscape:export-ydpi="202.38931">
  <sodipodi:namedview
     pagecolor="#ffffff"
     bordercolor="#666666"
     borderopacity="1"
     objecttolerance="10"
     gridtolerance="10"
     guidetolerance="10"
     inkscape:pageopacity="0"
     inkscape:pageshadow="2"
     inkscape:window-width="1440"
     inkscape:window-height="847"
     id="namedview17"
     showgrid="false"
     inkscape:zoom="0.67457797"
     inkscape:cx="698.40593"
     inkscape:cy="151.3351"
     inkscape:window-x="-8"
     inkscape:window-y="-8"
     inkscape:window-maximized="1"
     inkscape:current-layer="svg26"
     inkscape:snap-global="false"
     inkscape:snap-page="true" />
  <metadata
     id="metadata32">
    <rdf:RDF>
      <cc:Work
         rdf:about="">
        <dc:format>image/svg+xml</dc:format>
        <dc:type
           rdf:resource="http://purl.org/dc/dcmitype/StillImage" />
        <dc:title></dc:title>
      </cc:Work>
    </rdf:RDF>
  </metadata>
  <defs
     id="defs30" />
  <rect
     style="opacity:1;vector-effect:none;fill:#ffffff;fill-opacity:1;fill-rule:nonzero;stroke:none;stroke-width:3;stroke-linecap:butt;stroke-linejoin:round;stroke-miterlimit:4;stroke-dasharray:none;stroke-dashoffset:0;stroke-opacity:1;paint-order:markers fill stroke"
     id="rect4734"
     width="1423"
     height="505"
     x="0"
     y="0" />
  <g
     transform="matrix(1.423,0,0,0.81715209,119.4972,416.55069)"
     id="layer1"
     inkscape:label="レイヤー 1"
     style="stroke-width:0.92735517">
    <g
       transform="matrix(1.001001,0,0,1.376392,0,-396.10071)"
       id="g4144"
       style="stroke-width:0.92735517">
      <rect
         style="opacity:1;fill:#000000;fill-opacity:0.25098039;stroke:none;stroke-width:0.92735517;stroke-linecap:round;stroke-linejoin:round;stroke-miterlimit:4;stroke-dasharray:none;stroke-opacity:1"
         id="rect4136"
         width="999"
         height="449"
         x="0"
         y="603.36218" />
      <rect
         style="opacity:1;fill:#000000;fill-opacity:0.25098039;stroke:none;stroke-width:0.92735517;stroke-linecap:round;stroke-linejoin:round;stroke-miterlimit:4;stroke-dasharray:none;stroke-opacity:1"
         id="rect4136-9"
         width="999"
         height="277"
         x="0"
         y="775.36218" />
      <rect
         style="opacity:1;fill:#000000;fill-opacity:0.25098039;stroke:none;stroke-width:0.92735517;stroke-linecap:round;stroke-linejoin:round;stroke-miterlimit:4;stroke-dasharray:none;stroke-opacity:1"
         id="rect4136-9-5"
         width="999"
         height="277"
         x="0"
         y="603.36218" />
      <rect
         style="opacity:1;fill:#000000;fill-opacity:0.25098039;stroke:none;stroke-width:0.92735517;stroke-linecap:round;stroke-linejoin:round;stroke-miterlimit:4;stroke-dasharray:none;stroke-opacity:1"
         id="rect4136-8"
         width="617"
         height="449"
         x="0"
         y="603.36218" />
      <rect
         style="opacity:1;fill:#000000;fill-opacity:0.25098039;stroke:none;stroke-width:0.92735517;stroke-linecap:round;stroke-linejoin:round;stroke-miterlimit:4;stroke-dasharray:none;stroke-opacity:1"
         id="rect4136-8-2"
         width="617"
         height="449"
         x="382"
         y="603.36218" />
    </g>
  </g>
  <g
     id="g4605"
     transform="matrix(0.08828897,0,0,0.08828897,632.03993,418.50155)"
     style="fill:#000000;fill-opacity:1;stroke-width:11.32644367">
    <path
       inkscape:connector-curvature="0"
       d="m 306.15022,-197.16958 c -14.44739,0.1985 -29.40724,4.19367 -42.81276,11.16875 -38.09359,19.82064 -77.13638,57.57584 -116.66927,120.57796 -39.61902,63.13939 -62.54202,137.02549 -118.11852,186.7261 -5.962501,5.33211 -2.330882,15.17551 5.668044,15.17567 102.260086,0.002 187.355606,-40.99065 247.560836,-91.82168 44.94602,-37.94775 80.41147,-96.89951 87.77024,-138.62449 7.35877,-41.72499 -1.0232,-71.84165 -19.25784,-88.05886 -12.05104,-10.71775 -27.76702,-15.3684 -44.14073,-15.14345 z m 6.62755,7.50418 c 11.75541,0.21496 22.94351,3.8009 32.38093,12.43684 14.26406,13.05265 23.99297,42.08104 15.77903,79.91604 -8.21394,37.83499 -34.25393,84.44754 -90.31411,131.77893 C 221.49811,75.94289 154.87197,108.51544 75.142156,116.98311 133.29649,85.64978 173.81184,36.48612 207.6672,-13.16695 248.13167,-72.5131 285.98291,-129.373 320.15913,-157.15397 c 8.51143,-6.91873 6.16794,-9.7693 -3.10575,-3.24548 -41.35872,29.0949 -74.81882,86.04505 -117.68712,142.17854 C 162.31933,30.28984 120.9017,77.43529 63.058412,107.51999 100.7164,54.5085 128.98988,-6.08654 158.69973,-58.72776 c 35.36598,-62.66299 74.24822,-101.35691 108.43893,-118.61286 14.47329,-7.30464 30.52504,-12.60114 45.63911,-12.32478 z"
       style="fill:#000000;fill-opacity:1;stroke-width:11.32644367"
       id="path2" />
    <path
       inkscape:connector-curvature="0"
       d="m 418.29332,97.54507 q -18.9312,0 -27.69042,-12.14988 -8.47665,-12.14987 -7.06388,-32.77641 1.13022,-12.71498 4.80344,-32.49386 3.10811,-16.95332 9.32432,-42.66585 6.49878,-25.71253 17.51843,-62.16217 3.39066,-2.26044 6.78134,-3.39066 3.67321,-1.41278 6.49876,-1.97789 3.10811,-0.84766 6.49877,-1.13022 2.543,-0.28255 5.36855,-0.28255 2.26044,0 4.52088,0.56511 2.26046,0.28255 3.67323,1.41277 -14.41032,37.01475 -22.60442,63.29239 -7.91156,26.27765 -11.86733,43.23097 -4.80344,19.77886 -5.93366,32.49385 -0.84766,15.54055 4.52088,22.03931 5.65111,6.49877 16.67077,6.49877 8.75921,0 17.80099,-6.49877 9.04176,-6.78132 17.51842,-18.9312 8.47666,-12.43244 15.54054,-29.66831 7.34644,-17.51843 12.43243,-39.27518 2.26044,-12.14988 5.086,-24.29976 2.26044,-10.45454 5.086,-22.32187 2.82555,-12.14987 5.36854,-22.60442 2.543,-2.26044 5.36855,-3.39066 3.10811,-1.41278 5.65112,-2.26045 3.1081,-1.13022 6.21621,-1.41277 2.82555,-0.28256 5.6511,0 2.26044,0.28255 4.52089,0.84766 2.54299,0.56511 3.95577,1.97789 -4.80344,14.97543 -8.47666,27.12531 -3.39066,12.14988 -5.93366,20.90909 -3.1081,10.172 -5.36854,18.08354 -2.26044,8.47666 -5.36856,22.03931 -3.10811,11.86732 -7.62899,29.95086 -4.52088,18.08354 -11.01965,44.64374 -1.69533,6.78133 -4.23834,16.95332 -2.543,10.17199 -6.78133,21.19164 -3.95577,11.01966 -10.17198,21.75676 -5.93367,11.01966 -14.97544,19.77887 -8.75921,8.75922 -20.90909,14.12777 -12.14987,5.36855 -28.25553,5.36855 -9.32432,-0.28256 -16.67076,-2.82555 -6.49877,-2.26045 -12.14987,-6.78133 -5.36855,-4.23834 -6.21622,-12.43244 1.41278,-3.1081 3.10811,-5.6511 1.69533,-2.543 3.39066,-4.80344 1.97789,-2.54299 3.95577,-4.80345 1.97789,-1.97788 4.23833,-3.67321 1.97789,-1.41278 4.23833,-2.543 2.26044,-1.13022 4.52089,-1.13022 1.13022,2.543 3.39066,5.93366 2.26044,3.39066 5.65111,6.21622 3.39066,3.10811 7.62899,5.086 4.23832,1.97788 9.32433,1.97788 6.78132,0 14.41031,-4.52088 7.62899,-4.23833 14.97544,-14.97544 7.62899,-10.45454 14.69286,-28.53808 7.06389,-18.08354 13.28011,-45.4914 -3.67322,6.49877 -9.32432,14.12777 -5.65112,7.62899 -13.56266,14.41031 -7.62899,6.78134 -18.08354,11.30222 -10.17199,4.52088 -22.88698,4.52088 z"
       style="fill:#000000;fill-opacity:1;stroke-width:11.32644367"
       id="path4" />
    <path
       inkscape:connector-curvature="0"
       d="m 673.15819,63.07332 q -3.95577,5.65111 -10.172,14.12777 -6.21621,8.1941 -12.99753,16.67076 -6.49877,8.1941 -12.99755,15.25798 -6.21622,6.78134 -10.45454,9.60689 -2.82556,1.69533 -6.49877,2.82555 -3.67323,1.13022 -7.629,1.41278 -3.67322,0.28255 -7.06388,-0.56511 -3.39066,-0.56511 -5.93366,-2.26044 -2.543,-1.97789 -4.23834,-5.65111 -1.41276,-3.10812 -2.82555,-8.19411 -1.13022,-5.08599 -0.84767,-12.71498 -6.78132,11.30221 -14.97542,17.51842 -8.19411,5.93367 -15.54054,8.75922 -8.47666,3.10811 -16.95333,3.67322 -3.95577,0 -8.47665,-2.82555 -4.52088,-2.543 -7.62899,-8.1941 -3.10811,-5.93367 -3.95577,-14.97544 -0.84767,-9.32433 2.26044,-22.03931 3.95577,-17.23588 12.43243,-31.36364 8.75922,-14.12777 18.9312,-24.0172 10.17199,-10.17199 20.06143,-15.25799 9.88943,-5.08599 16.3882,-4.52088 7.629,1.41278 12.43244,4.52088 3.95577,2.82556 5.08599,8.47666 1.41278,5.36856 -4.52088,14.41032 3.95577,-0.84766 6.49877,-1.13022 2.82555,-0.28255 4.23834,-0.28255 1.69533,0 2.26044,0.28255 0.28255,0.56511 0.28255,2.543 0,1.69533 -0.84766,6.49877 -0.84768,4.80345 -2.54301,12.99755 -1.69533,8.1941 -4.52088,21.19164 -0.56511,2.543 -1.13022,4.80344 -0.28256,1.97789 -0.84767,4.23833 -0.28255,1.97789 -0.84766,4.80344 -0.56511,2.82555 -1.41278,7.06389 -0.28256,2.54299 -0.28256,5.6511 0.28256,2.82555 1.13023,5.36855 0.84766,2.543 2.54299,4.23833 1.97789,1.41277 5.36855,1.41277 2.82556,0 7.34644,-3.39066 4.52089,-3.67322 9.60688,-9.04177 5.08599,-5.6511 10.45455,-12.14988 5.65111,-6.78132 10.45454,-12.99754 4.80344,-6.21622 8.47666,-11.01966 3.95577,-4.80344 5.65111,-7.06388 2.26044,-2.54299 4.52089,-2.82555 2.26044,-0.56511 3.39066,1.13022 1.13022,1.69533 0.28255,5.08599 -0.56511,3.39067 -3.95577,7.91155 z m -82.78871,12.43244 q 1.41278,-5.65111 3.39068,-13.28011 1.97788,-7.62899 3.39066,-14.69286 1.41277,-7.06388 1.97788,-11.58478 0.84767,-4.80344 -0.28255,-4.52088 -1.41278,0.28256 -3.10811,0.84767 -1.41277,0.56511 -3.67323,0.84766 -2.26044,0.28256 -4.52088,0.84767 2.26044,-4.52089 2.543,-7.34644 0.56511,-3.1081 0.28255,-4.80344 -0.28255,-1.97788 -1.13022,-3.1081 -3.1081,-2.54301 -11.01965,4.23832 -7.629,6.49877 -17.80098,24.29976 -4.23833,7.34643 -6.78133,15.82309 -2.543,8.19411 -3.67322,15.54054 -0.84766,7.34644 -0.28255,12.99755 0.56511,5.36855 2.26044,7.06388 3.10811,3.10811 7.06388,3.10811 3.95577,-0.28256 7.91154,-2.26044 4.23834,-2.26044 8.19411,-5.65111 4.23833,-3.39066 7.34644,-7.06389 3.39066,-3.67321 5.36855,-6.78132 2.26044,-3.10811 2.54299,-4.52088 z"
       style="fill:#000000;fill-opacity:1;stroke-width:11.32644367"
       id="path6" />
    <path
       inkscape:connector-curvature="0"
       d="m 728.53902,15.32149 q 3.67322,-2.82557 7.06388,-4.23834 3.67322,-1.69533 6.49878,-2.26044 3.10811,-0.84767 6.21621,-0.56511 7.62899,0.56511 9.32433,4.80343 1.97788,4.23834 0.56511,13.56266 -0.84767,4.80344 -3.39067,12.14987 -2.54299,7.34645 -5.93366,18.08355 -3.39066,10.45455 -7.34643,24.0172 -3.67323,13.56265 -7.06389,30.51596 -3.39066,13.84522 -7.34643,31.92876 -3.39067,15.82309 -8.1941,38.14496 -4.5209,22.32187 -9.88945,51.1425 -1.41277,7.06389 -6.21621,8.19412 -4.52088,1.13022 -9.60687,-1.13023 -1.9779,-1.13022 -3.67323,-2.54299 -1.41278,-1.41278 -3.10811,-3.39066 -1.69533,-1.69535 -2.82555,-4.80345 6.49877,-23.73465 11.30222,-43.23095 5.08599,-19.49632 9.04176,-33.90665 4.23833,-16.67076 7.91155,-29.95085 1.41277,-5.93366 2.54299,-11.58478 1.41278,-5.93365 2.82555,-11.58476 -3.67321,5.93366 -7.91154,11.30221 -4.23833,5.36856 -9.32432,9.32433 -5.08599,3.95577 -11.01966,5.93366 -5.65111,2.26044 -11.86732,1.41277 -15.25799,-1.97788 -21.75676,-11.3022 -6.21621,-9.32433 -5.36855,-24.29976 0.28256,-5.93367 1.69533,-12.99755 1.41278,-7.06388 3.10811,-13.56264 1.69533,-6.49878 3.10811,-11.58478 1.69533,-5.36854 2.54299,-7.62899 3.39067,-10.7371 4.80344,-18.36609 1.69533,-7.62899 -2.26044,-12.715 3.95577,-2.54299 7.34645,-3.39066 3.67321,-1.13022 6.49876,-1.69533 3.10811,-0.28255 6.21622,0 7.62899,1.13022 8.75921,5.6511 1.41279,4.5209 -0.84767,13.56266 -1.13022,4.80344 -3.67321,12.43244 -2.543,7.34644 -5.36855,15.25798 -2.82555,7.91156 -5.086,14.69288 -2.26044,6.49877 -2.54299,9.32432 -2.543,12.71499 -0.28256,19.77887 2.26044,6.78133 9.88943,6.78133 3.67322,0 8.1941,-3.10811 4.5209,-3.39066 9.04178,-8.75921 4.80344,-5.36855 9.32432,-12.14988 4.52088,-7.06388 8.19411,-14.12776 3.95577,-7.06389 6.78133,-13.84522 3.1081,-6.78132 4.52088,-12.14987 1.97788,-10.45455 2.54299,-16.38821 0.56511,-5.93366 -3.95577,-10.73709 z"
       style="fill:#000000;fill-opacity:1;stroke-width:11.32644367"
       id="path8" />
    <path
       inkscape:connector-curvature="0"
       d="m 855.40637,74.37554 q -2.82557,10.73709 -7.629,20.06142 -4.80344,9.32432 -11.58477,16.10565 -6.49877,6.78133 -14.97543,10.45455 -8.1941,3.95577 -18.08354,3.95577 -11.58476,0 -18.3661,-5.08599 -6.49877,-4.80344 -9.88943,-12.14988 -3.10811,-7.34644 -3.67322,-16.10565 -0.84766,-8.75922 -0.84766,-16.38821 0,-5.36855 1.41277,-11.86733 1.13023,-6.49876 3.39067,-13.28009 2.26044,-6.78132 5.6511,-13.56266 3.67323,-6.78132 8.47667,-12.43242 1.69533,-4.80344 5.08599,-8.47667 3.67322,-3.67322 8.1941,-5.93366 4.80345,-2.543 10.172,-3.67322 5.36854,-1.41277 10.45454,-1.41277 0.84766,0 1.41277,0.28255 0.84767,0.28256 1.69533,0.56511 3.67322,0.28256 9.04178,2.82556 5.6511,2.54299 10.7371,7.629 5.36854,5.08599 9.04176,12.99753 3.67323,7.62899 3.67323,18.64866 0,2.26044 -0.28256,5.6511 -0.28255,3.10811 -0.56512,5.36855 6.49878,-2.543 13.56266,-6.21622 7.06388,-3.67321 13.56266,-7.62899 6.78132,-4.23832 12.43243,-8.47666 5.6511,-4.23833 9.04176,-7.62899 2.82557,-2.543 4.80345,-2.82555 1.97789,-0.28256 2.82555,1.13022 0.84767,1.41277 0.28256,3.95577 -0.56511,2.543 -3.10811,5.6511 -1.41277,1.69533 -7.34643,6.78134 -5.65112,5.08599 -13.56266,11.01965 -7.91155,5.93366 -17.23588,11.58477 -9.32432,5.6511 -17.80097,8.47666 z M 807.65451,31.42713 q -0.84766,2.543 -0.84766,5.36855 0,4.52089 0.56512,9.60688 0.56511,4.80344 2.82555,8.75921 2.26044,3.95578 7.06388,6.78133 5.08599,2.54301 13.8452,2.54301 1.41279,0 2.82555,0 1.41279,-0.28257 2.82557,-0.56511 0.84766,-3.67323 1.41277,-6.49878 0.84767,-3.10811 0.84767,-5.36855 0.56511,-5.36855 0,-11.01965 -0.56511,-5.65112 -2.26044,-10.172 -1.41278,-4.80344 -3.95579,-7.62899 -2.26044,-3.10811 -5.6511,-3.10811 -5.36855,0 -10.45454,3.10811 -4.80344,2.82555 -9.04178,8.1941 z m -18.08353,49.72973 q 0,5.08599 0.56511,10.172 0.56511,4.80344 2.26044,8.75921 1.69533,3.67321 4.52089,6.21621 2.82555,2.26044 7.34643,2.26044 5.08599,0 9.32433,-2.26044 4.23833,-2.543 7.62899,-6.21621 3.39066,-3.95577 5.93366,-8.75921 2.82555,-5.08601 4.80345,-10.45455 -1.9779,0.28255 -3.95579,0.56511 -1.69533,0 -3.95577,0 -10.73709,0 -18.64865,-6.21622 -7.62899,-6.49877 -11.86732,-16.38821 -1.69533,5.93367 -2.82555,11.58477 -1.13022,5.65111 -1.13022,10.7371 z"
       style="fill:#000000;fill-opacity:1;stroke-width:11.32644367"
       id="path10" />
    <path
       inkscape:connector-curvature="0"
       d="m 948.08449,-47.12324 q -0.84766,3.10811 -3.39066,6.21622 -2.26044,2.82555 -5.36855,4.80343 -2.82555,1.69533 -5.93366,2.26044 -3.1081,0.56511 -5.086,-1.13022 -5.93366,-4.52088 -6.21621,-9.60687 -0.28256,-5.36855 2.54299,-9.88943 2.82555,-4.80345 7.06389,-7.91156 4.23833,-3.39066 7.34644,-3.95577 3.1081,-0.56511 5.08599,1.41278 2.26044,1.69533 3.39066,4.80343 1.13022,2.82555 1.13022,6.49878 0.28256,3.67322 -0.56511,6.49877 z m -38.99262,60.18427 q 1.41277,-1.69533 5.36855,-2.82555 3.95577,-1.13022 8.1941,-1.69533 4.23832,-0.84766 7.629,-0.84766 3.67321,-0.28256 4.23832,0 0.28256,0.28255 -1.41277,5.93365 -1.69533,5.65112 -4.23834,13.28011 -2.543,7.62899 -5.36855,15.8231 -2.82555,7.91154 -4.23833,12.99754 -1.41277,5.08599 -3.39066,11.58477 -1.97788,6.21621 -3.67321,12.43243 -1.41278,5.93365 -1.97789,11.30221 -0.56511,5.36855 0.84766,8.1941 1.41278,3.39066 3.10811,4.80344 1.69533,1.13022 3.67322,1.13022 5.6511,0 14.12777,-6.21621 8.75921,-6.21622 17.51842,-14.69288 9.04177,-8.75921 16.67076,-17.51842 7.62899,-9.04178 11.30221,-14.41033 2.26045,-2.82555 4.52089,-3.67321 2.543,-0.84767 3.95578,0.28255 1.69533,1.13022 1.69533,3.67322 0.28255,2.54299 -1.69533,5.93366 -4.52089,7.91155 -13.28011,18.9312 -8.75921,10.7371 -18.64865,20.9091 -9.88943,9.88943 -19.49631,16.95332 -9.32433,7.06388 -15.25799,7.34643 -4.80343,0.28256 -9.60687,-1.69533 -4.52088,-1.69533 -8.47667,-4.80344 -3.67321,-3.39067 -6.21621,-7.629 -2.543,-4.52088 -2.82555,-9.32432 -0.84767,-7.06388 0,-19.21376 0.84766,-12.43243 3.1081,-25.14742 2.26045,-12.99754 5.65111,-24.58231 3.67323,-11.58476 8.19411,-17.23588 z"
       style="fill:#000000;fill-opacity:1;stroke-width:11.32644367"
       id="path12" />
    <path
       inkscape:connector-curvature="0"
       d="m 1064.2147,-57.57779 q -3.3906,1.13022 -5.086,0.28255 -1.6953,-0.84766 -2.543,-2.82555 -0.8476,-1.97788 -0.8476,-4.23832 0,-2.543 0.2825,-4.80344 0.2826,-1.97789 0.8477,-4.52089 0.8476,-2.54299 1.9779,-4.80343 1.1302,-2.26044 2.543,-3.67323 1.6953,-1.69533 4.2383,-2.26044 12.9975,-2.26044 25.1474,-3.39066 12.4325,-1.13022 22.3219,-1.69534 11.3022,-0.84766 21.7567,-0.84766 2.2605,0 4.5209,0.28255 2.2604,0 4.5209,0 2.543,-0.56511 3.9558,-0.28255 1.6953,0 2.8255,0.28255 8.1941,0.28256 16.9533,0.84767 7.3465,0.56511 16.3883,1.41278 9.3243,0.56511 18.3661,1.69533 0.8476,2.26044 0.2826,5.65111 -0.2826,1.69533 -0.5652,3.39066 -0.2826,1.69533 -1.4128,3.10811 -0.8477,1.41278 -2.2605,2.82555 -1.1302,1.13022 -2.8255,1.97789 -9.6069,-0.28256 -18.6486,-0.28256 -8.7592,-0.28255 -15.5405,-0.28255 h -15.2581 q -3.6731,12.99755 -9.0417,32.2113 -5.3686,18.9312 -11.0197,40.12285 -5.3685,20.9091 -10.4545,41.81819 -4.8034,20.62654 -7.629,37.29729 -2.8256,16.10566 -5.6511,31.6462 -1.1302,6.49877 -2.543,13.56265 -1.1302,7.06388 -2.2605,13.84521 -0.8476,6.78133 -1.6953,12.99754 -0.8476,6.21621 -1.4128,11.30222 -4.5208,2.26044 -8.4766,3.39066 -3.9558,1.41278 -7.0639,1.97789 -3.6732,0.84766 -6.7813,0.84766 -6.7814,0 -8.4767,-1.69533 -1.4128,-1.41278 -0.2825,-5.93366 0.8476,-3.95578 5.086,-21.4742 1.6953,-7.34645 4.2383,-18.64865 2.8255,-11.01965 6.4988,-26.84275 3.6732,-16.10566 8.7592,-37.29731 5.086,-21.4742 11.5847,-49.16462 l 18.9312,-78.55037 q -8.4766,1.13022 -16.6707,2.543 -8.1941,1.41278 -15.5406,3.10811 -7.0638,1.41277 -12.9975,2.82555 -5.6511,1.41277 -9.0418,2.26044 z"
       style="fill:#000000;fill-opacity:1;stroke-width:11.32644367"
       id="path14" />
    <path
       inkscape:connector-curvature="0"
       d="m 1315.4064,57.13966 q 1.9779,-2.26044 3.9557,-2.26044 2.2605,-0.28256 3.3907,1.13022 1.4128,1.13022 1.1302,3.67322 0,2.54299 -2.2604,5.65111 -5.3685,7.34644 -12.4324,15.25798 -7.064,7.62899 -15.258,14.97543 -7.9116,7.34644 -16.1056,13.84521 -8.1942,6.49878 -15.8231,10.73711 -8.4767,4.80343 -14.4104,4.80343 -5.6511,0 -11.3022,-7.34643 -5.086,-6.49878 -5.086,-13.84522 0.2825,-7.62898 3.3907,-18.9312 1.9779,-7.06388 5.3685,-16.67076 3.6733,-9.88944 5.6511,-18.9312 2.2605,-9.04178 1.4128,-15.25799 -0.8477,-6.49877 -7.3465,-6.49877 -4.5208,0 -9.8894,3.1081 -5.086,3.10811 -10.4545,8.1941 -5.086,4.80345 -9.8894,11.01967 -4.8035,6.21621 -8.4767,12.14987 -2.2605,11.01966 -4.5209,21.75676 -1.9779,9.04177 -4.2383,19.77887 -1.9779,10.45455 -3.9558,18.64865 -1.6953,1.41278 -3.6732,1.97789 -1.9779,0.56511 -3.6732,0.56511 -1.9779,0 -3.9558,-0.28256 -2.2605,-0.56511 -4.2383,-1.69533 -1.6954,-1.13022 -3.3907,-3.10811 -1.6954,-1.69533 -2.543,-4.80343 12.715,-52.27274 20.0615,-83.91893 7.3463,-31.64619 11.3022,-48.31696 4.5209,-19.77887 6.2161,-27.40786 0.8477,-5.36855 1.4128,-10.45454 0.5651,-4.52089 0.5651,-9.32433 0,-4.80344 -0.8477,-8.75921 2.2605,-1.41278 4.8035,-2.26044 2.8256,-0.84767 5.3685,-1.41278 3.1082,-0.84766 6.2163,-1.41277 3.1081,-0.56511 5.6511,-0.56511 2.2604,0 4.2383,0.56511 1.9779,0.28255 2.543,1.69533 1.6953,1.41277 1.4128,5.6511 0,4.23833 -0.5651,8.75921 -1.1303,5.36855 -2.5431,11.58477 -5.9335,22.88698 -13.28,44.64374 -7.3465,21.47421 -13.5627,46.05652 3.6733,-5.65112 8.7592,-11.58478 5.0861,-5.93366 11.0197,-10.73709 6.2162,-5.08601 12.9975,-8.19411 6.7813,-3.39067 14.4104,-3.39067 3.9557,0 7.3464,1.41278 3.6732,1.13022 6.2163,4.23833 2.8255,2.82555 4.2383,7.91155 1.4128,4.80344 1.1302,12.14988 0,4.52088 -1.1302,9.32433 -0.8477,4.80343 -2.5431,10.73709 -1.6952,5.65111 -4.5208,12.715 -2.5431,7.06387 -6.2162,16.3882 -2.543,6.49876 -3.9558,11.01966 -1.4128,4.52088 0.5651,7.91154 2.5429,4.52089 9.8894,2.26044 7.629,-2.54299 22.6044,-14.69288 3.3907,-2.82555 7.629,-7.06387 4.2384,-4.23833 8.1941,-8.47666 3.9559,-4.52088 7.3465,-8.47667 3.3907,-3.95577 5.6511,-6.21621 z"
       style="fill:#000000;fill-opacity:1;stroke-width:11.32644367"
       id="path16" />
    <path
       inkscape:connector-curvature="0"
       d="m 1378.9813,15.32149 q 3.6733,-2.82557 7.064,-4.23834 3.6731,-1.69533 6.4987,-2.26044 3.1081,-0.84767 6.2161,-0.56511 7.6291,0.56511 9.3244,4.80343 1.978,4.23834 0.5652,13.56266 -0.8477,4.80344 -3.3907,12.14987 -2.543,7.34645 -5.9337,18.08355 -3.3906,10.45455 -7.3465,24.0172 -3.6731,13.56265 -7.0638,30.51596 -3.3906,13.84522 -7.3465,31.92876 -3.3906,15.82309 -8.1941,38.14496 -4.5209,22.32187 -9.8894,51.1425 -1.4128,7.06389 -6.2163,8.19412 -4.5208,1.13022 -9.6068,-1.13023 -1.9778,-1.13022 -3.6732,-2.54299 -1.4128,-1.41278 -3.1081,-3.39066 -1.6954,-1.69535 -2.8256,-4.80345 6.4989,-23.73465 11.3022,-43.23095 5.0861,-19.49632 9.0418,-33.90665 4.2384,-16.67076 7.9115,-29.95085 1.4128,-5.93366 2.543,-11.58478 1.4128,-5.93365 2.8256,-11.58476 -3.6732,5.93366 -7.9115,11.30221 -4.2384,5.36856 -9.3243,9.32433 -5.0861,3.95577 -11.0197,5.93366 -5.6511,2.26044 -11.8673,1.41277 -15.2581,-1.97788 -21.7568,-11.3022 -6.2162,-9.32433 -5.3685,-24.29976 0.2826,-5.93367 1.6952,-12.99755 1.4128,-7.06388 3.1082,-13.56264 1.6953,-6.49878 3.1081,-11.58478 1.6953,-5.36854 2.543,-7.62899 3.3907,-10.7371 4.8034,-18.36609 1.6954,-7.62899 -2.2605,-12.715 3.9559,-2.54299 7.3465,-3.39066 3.6733,-1.13022 6.4988,-1.69533 3.1082,-0.28255 6.2162,0 7.629,1.13022 8.7592,5.6511 1.4128,4.5209 -0.8476,13.56266 -1.1302,4.80344 -3.6733,12.43244 -2.543,7.34644 -5.3685,15.25798 -2.8256,7.91156 -5.086,14.69288 -2.2605,6.49877 -2.5429,9.32432 -2.5431,12.71499 -0.2826,19.77887 2.2604,6.78133 9.8894,6.78133 3.6732,0 8.1941,-3.10811 4.5209,-3.39066 9.0418,-8.75921 4.8034,-5.36855 9.3243,-12.14988 4.5209,-7.06388 8.1941,-14.12776 3.9558,-7.06389 6.7814,-13.84522 3.108,-6.78132 4.5209,-12.14987 1.9778,-10.45455 2.5429,-16.38821 0.5651,-5.93366 -3.9558,-10.73709 z"
       style="fill:#000000;fill-opacity:1;stroke-width:11.32644367"
       id="path18" />
    <path
       inkscape:connector-curvature="0"
       d="m 1553.883,106.30428 q 0,-5.93366 1.1303,-13.56265 1.4128,-7.629 3.3906,-15.54054 1.9779,-8.1941 3.9558,-15.8231 1.9779,-7.62899 3.3907,-13.56265 1.6953,-7.34643 -0.2826,-11.30222 -1.9778,-3.95577 -6.7813,-3.95577 -2.2604,0 -9.0418,3.95577 -6.4988,3.95579 -14.4104,13.84522 -7.6289,9.60687 -15.2579,26.27764 -7.3465,16.38821 -11.5848,41.81818 -5.3685,2.82556 -10.1719,3.67322 -2.5431,0.56511 -4.5209,0.84767 -5.6511,0.28255 -7.3465,-1.97789 -1.6953,-1.97789 0.5651,-10.172 1.1303,-3.95577 3.9558,-12.71498 3.1082,-8.75921 5.9336,-18.93121 2.8257,-10.45454 4.8035,-20.62653 2.2605,-10.45454 2.2605,-18.08353 0,-5.36856 -1.9779,-7.34645 -1.6954,-1.97789 -5.0861,-1.97789 -2.543,0 -8.4765,2.82556 -5.9337,2.82555 -13.2802,11.01966 -7.3464,8.1941 -14.6929,22.88698 -7.0639,14.41031 -12.1498,37.57985 v -0.56511 q -0.5652,2.26044 -1.1302,4.52088 -0.5652,1.97788 -0.8477,4.23834 -0.2826,2.26044 -0.8477,4.23832 l -14.1277,6.21622 q -1.4128,0.56511 -3.6733,0.84766 -1.9778,0.28256 -3.9558,-0.84766 -1.6953,-0.84767 -2.5429,-3.95577 -0.8478,-3.10811 0.565,-9.32434 l 17.8011,-73.74693 q 0.8476,-3.67321 1.4127,-7.06388 0.5651,-3.1081 0.5651,-5.93365 0.2826,-3.10811 -0.2825,-5.086 4.8034,-2.26044 8.4767,-3.39067 3.6731,-1.13022 5.9335,-1.69533 2.8257,-0.84767 4.8035,-0.84767 9.0418,0 5.9337,15.54055 -1.1302,4.52088 -3.3907,13.2801 5.3686,-6.78133 11.3022,-12.71499 6.2163,-6.21622 12.4325,-11.01965 6.2162,-4.80345 12.4324,-7.629 6.4987,-2.82555 12.715,-2.82555 4.8035,0 7.9115,2.82555 3.3907,2.82555 5.0861,7.629 1.9778,4.52088 2.2604,11.01965 0.2825,6.21621 -0.5651,12.99755 4.5208,-5.93367 9.8894,-11.86733 5.6511,-6.21621 11.5847,-11.01965 6.2163,-4.80345 12.7151,-7.91156 6.4987,-3.1081 12.9975,-3.1081 7.629,0 11.5847,4.52088 4.2384,4.52089 5.6511,11.58477 1.6954,7.06388 0.8478,15.25798 -0.5652,8.19411 -2.2605,15.8231 l -9.6069,38.14497 q -3.1081,14.12776 5.9337,14.12776 7.0639,0 15.5405,-6.78133 8.4767,-6.78132 16.3882,-16.10565 8.1942,-9.32432 15.258,-19.21375 7.0639,-9.88944 11.8673,-15.8231 1.6954,-1.97789 3.3907,-2.26044 1.9778,-0.28256 3.1081,0.84766 1.4128,0.84767 1.4128,3.10811 0.2826,2.26044 -1.4128,5.6511 -5.6511,9.88944 -13.8451,22.03931 -8.1942,11.86733 -18.0837,22.32187 -9.6068,10.45456 -20.6264,17.51843 -11.0198,7.06388 -22.887,7.06388 -3.9558,0 -7.9116,-0.84766 -3.6732,-0.84767 -7.0639,-3.10811 -3.108,-2.26044 -5.086,-5.93366 -1.9779,-3.95578 -1.9779,-9.88944 z"
       style="fill:#000000;fill-opacity:1;stroke-width:11.32644367"
       id="path20" />
    <path
       inkscape:connector-curvature="0"
       d="m 1758.1704,60.53032 q -8.4765,12.43244 -19.2137,24.29976 -10.737,11.58477 -22.887,20.90909 -11.8672,9.04178 -24.5823,14.69288 -12.4324,5.6511 -24.2998,5.6511 -6.2161,0 -13.5626,-3.1081 -7.0639,-2.82555 -12.9975,-9.04177 -5.9337,-6.21622 -9.6069,-16.10565 -3.3907,-9.88943 -1.9779,-24.0172 1.1303,-11.58478 7.0639,-24.29976 6.2162,-12.99755 14.9754,-23.73464 9.0417,-10.73711 20.0615,-17.80099 11.3022,-7.06388 22.6044,-7.06388 10.737,0 15.5405,5.36855 4.8035,5.36855 4.2384,13.2801 -0.8478,8.75921 -5.086,16.10565 -3.9559,7.34644 -9.607,13.2801 -5.6511,5.93366 -12.1498,10.7371 -6.2162,4.80345 -11.8673,8.75922 -6.2162,4.23833 -11.8673,8.1941 -5.6511,3.67322 -9.8894,6.78132 0.2824,7.06389 2.5429,11.86733 2.2604,4.80344 5.6511,7.91154 3.3906,2.82556 7.629,4.23833 4.5209,1.13022 9.0418,1.13022 9.6068,0 20.0614,-5.93366 10.4546,-6.21621 20.3439,-14.69286 10.172,-8.75923 18.6487,-18.08355 8.7592,-9.32433 14.4103,-16.10565 1.978,-2.26044 3.9559,-2.543 2.2604,-0.56511 3.3906,0.56511 1.4128,0.84767 1.4128,3.39066 0,2.26045 -1.978,5.36855 z m -72.3341,-43.5135 q -3.3906,0 -8.1941,3.39066 -4.5209,3.39066 -9.0417,9.88943 -4.5209,6.21621 -8.4768,15.54054 -3.9557,9.04177 -5.9335,20.9091 3.3906,-2.54301 7.3463,-5.08601 3.9559,-2.82555 7.9116,-5.93365 12.1499,-9.32433 16.9533,-16.38822 4.8035,-7.06387 5.3686,-12.14987 0.5651,-5.36855 -1.1302,-7.62899 -1.6954,-2.54299 -4.8035,-2.54299 z"
       style="fill:#000000;fill-opacity:1;stroke-width:11.32644367"
       id="path22" />
    <path
       inkscape:connector-curvature="0"
       d="m 33.324155,121.4315 a 7.5213421,7.5213421 0 1 0 0,15.04026 H 1766.754 a 7.5213421,7.5213421 0 1 0 0,-15.04026 z"
       style="fill:#000000;fill-opacity:1;stroke-width:11.32644367"
       id="path24" />
  </g>
  <g
     id="g4952"
     transform="translate(18.228006)">
    <g
       transform="translate(-4.192884,-6.2893259)"
       id="g4932">
      <g
         aria-label="説"
         style="font-style:normal;font-variant:normal;font-weight:normal;font-stretch:normal;font-size:248.76750183px;line-height:1.25;font-family:CRCandGRyuurei-M04;-inkscape-font-specification:'CRCandGRyuurei-M04, Normal';font-variant-ligatures:normal;font-variant-caps:normal;font-variant-numeric:normal;font-feature-settings:normal;text-align:start;letter-spacing:0px;word-spacing:0px;writing-mode:lr-tb;text-anchor:start;fill:#000000;fill-opacity:1;stroke:none;stroke-width:2.08861017"
         id="text4533"
         transform="matrix(0.47878732,0,0,0.47878732,369.58856,799.55032)">
        <path
           d="m 1029.5365,-1071.6744 q 2.4877,1.5548 2.1767,3.1096 -0.311,1.2439 -3.7315,4.0425 -6.2192,4.0425 -19.9014,6.8411 -13.68223,2.7986 -33.89459,2.4877 -20.21236,-0.311 -26.7425,-6.8411 -6.53015,-6.8411 -6.53015,-17.4138 0,-4.0424 3.42055,-21.1452 3.73152,-17.1028 3.42056,-19.2795 -0.93288,-4.0424 0.31096,-4.6644 1.24383,-0.9328 4.04247,0.9329 3.10959,1.8658 5.28631,3.7315 2.48767,1.5548 3.73151,3.7315 0.93288,2.1768 0,4.6644 -0.62192,2.1767 -4.66439,5.5973 -2.48768,1.8658 -4.66439,12.4384 -1.86576,10.2616 -1.86576,14.926 0,5.5973 8.08495,9.0178 8.3959,3.1096 19.59044,3.1096 11.19453,0 19.59044,-3.7315 8.70689,-4.0424 9.01779,-10.8836 0,-5.2863 -1.2438,-15.5479 -1.2438,-10.2617 -3.1096,-13.6822 l 0.6219,-1.5548 q 5.2863,9.6397 13.0603,23.011 7.774,13.0603 13.9932,17.1027 z m -147.0838,-138.9988 q -6.21919,-3.4206 -19.59044,3.4205 -13.0603,6.8411 -21.76716,12.1275 17.10277,-12.1275 20.83428,-16.4809 4.04247,-4.6644 4.04247,-4.6644 -4.66439,-3.7315 -6.84111,-6.8411 -2.17671,-3.4205 -2.17671,-4.6644 0,-1.2438 4.97535,0.311 5.28631,1.5548 9.63974,1.8657 6.8411,0.622 10.88358,3.4206 4.04247,2.4877 4.97535,5.9082 0.93287,3.4206 -0.93288,5.2863 -1.5548,1.8658 -4.04247,0.311 z m 46.02198,74.6302 q 5.59727,-5.5972 16.16989,-19.2794 10.57262,-13.6823 12.12742,-18.0357 -4.66439,-1.2438 -15.54797,4.0425 -10.57262,4.9753 -23.94387,13.0603 0.31096,0.3109 0.31096,0.6219 0.31096,0 0.31096,0.311 0,2.4876 3.10959,8.0849 3.10959,5.2863 7.46302,11.1945 z m 51.3083,-32.0288 q -4.97535,0.9329 -12.43837,7.463 -7.46303,6.2192 -8.39591,9.6398 4.97535,2.1767 4.35343,5.9082 -0.62191,3.7315 -6.53014,8.7069 -1.5548,1.2438 -29.54114,36.3822 -27.67539,35.1384 -31.09594,37.9371 -0.93288,0.6219 -3.73151,3.7315 -2.48768,2.7986 -3.42056,1.2438 -2.48767,-2.7986 1.5548,-5.5972 4.35343,-2.7987 5.59727,-3.7316 2.17671,-2.4876 15.23701,-25.1877 13.06029,-22.7 17.72468,-33.2726 -1.24383,0.3109 -3.10959,0 -1.5548,-0.6219 -3.10959,-1.8658 -5.28631,-4.0425 -13.99318,-17.7247 -8.70686,-13.9931 -9.63974,-18.0356 -1.86575,-5.5973 2.17672,-4.9754 4.04247,0.622 9.63974,4.9754 1.24384,-0.6219 7.46302,-2.7986 6.21919,-2.4877 10.57262,-4.0425 9.01783,-13.0603 18.65757,-29.2302 9.9507,-16.1699 10.88357,-20.8343 -3.73151,0 -16.7918,9.0178 -13.0603,9.0179 -17.10277,14.3042 -4.66439,4.9753 -8.08494,7.774 -3.1096,2.4876 -3.73151,0.9328 -0.62192,-0.9328 -4.35344,-6.2191 -3.73151,-5.5973 -3.42055,-8.085 0,-1.5548 0.31096,-2.7986 0.62192,-1.2439 1.24384,-1.5548 0.93288,-0.311 1.55479,0 0.62192,0.3109 0.93288,1.5548 0.62192,2.4877 3.73152,4.0424 3.10959,1.2439 7.15206,-1.2438 4.35343,-3.7315 21.76716,-13.3712 17.41372,-9.9507 20.21236,-9.9507 1.55479,0 4.97535,0.6219 3.73151,0.6219 6.53014,2.1767 3.1096,1.5548 3.42056,3.4205 0.62192,1.8658 -2.79864,4.0425 -5.59727,2.4877 -17.41372,16.1699 -11.81646,13.3713 -20.21236,26.4316 9.01782,-3.7316 17.41372,-6.5302 8.70687,-2.7986 10.88358,-2.7986 1.24384,-0.311 6.21919,1.2438 5.28631,1.2438 9.63974,3.7315 4.35343,2.1767 4.66439,4.6644 0.62192,2.1767 -5.59727,3.7315 z m -95.77549,-2.4877 q -2.48767,0 -12.43837,0 -9.9507,-0.3109 -18.03565,1.8658 -8.70686,2.4877 -22.38907,9.3288 -13.68221,6.5301 -16.79181,7.774 -3.73151,0.9328 -8.3959,-1.2439 -4.35343,-2.4876 -7.46303,-5.2863 -1.55479,-1.2438 11.81646,-3.4205 13.68221,-2.4877 16.16989,-2.7987 6.21919,-1.5548 13.99317,-4.6644 8.08494,-3.4205 16.16989,-5.2863 2.17671,-0.9328 8.08494,-2.1767 6.21919,-1.5548 8.70686,-2.1767 3.42056,-1.5548 8.39591,-0.6219 4.97535,0.6219 8.3959,2.7986 3.42055,1.8658 2.17672,3.7315 -1.24384,1.8658 -8.39591,2.1767 z m -11.81645,29.2302 q -5.28631,0.9329 -14.30413,5.9083 -9.01783,4.9753 -14.30414,9.3287 6.84111,-7.463 9.01783,-10.8835 2.48767,-3.4206 2.48767,-3.4206 -3.42055,0 -5.59727,-0.311 -2.17671,-0.3109 -3.42055,-0.9328 -1.24384,-0.6219 -1.5548,-0.9329 -0.31096,-0.6219 -0.31096,-0.6219 8.70687,-5.2863 16.48085,-7.1521 7.77398,-2.1767 7.77398,-2.1767 2.48768,-0.311 6.84111,0.6219 4.35343,0.9329 6.84111,2.7986 2.48767,1.8658 0.31096,4.0425 -1.86576,1.8658 -10.26166,3.7315 z m 4.66439,25.8097 q -4.97535,1.5548 -16.16989,6.8411 -11.19454,4.9753 -18.3466,9.0178 6.53014,-3.7315 9.01782,-7.463 2.79863,-3.7316 2.79863,-3.7316 -5.90822,-2.4876 -8.3959,-4.0424 -2.48767,-1.5548 -2.48767,-1.5548 -2.17672,-1.8658 11.50549,-5.5973 13.99317,-3.7315 16.48085,-4.6644 1.5548,-1.2438 4.97535,-0.3109 3.42055,0.9328 5.59727,2.7986 2.17671,1.8658 1.24384,4.3534 -0.93288,2.1767 -6.21919,4.3535 z m -30.47402,37.3151 q 0.62192,1.2438 0.93288,2.7986 0.62192,1.2439 1.24383,3.1096 0.31096,1.8658 1.24384,4.9754 1.24384,2.7986 2.79864,7.463 0.31096,-0.311 0.31096,-0.311 0.31096,-0.3109 0.62191,-0.6219 7.77399,-7.1521 13.37126,-17.1028 5.90823,-10.2616 1.24384,-9.9507 -5.28631,0.311 -13.0603,4.6644 -7.46302,4.0425 -8.70686,4.9754 z m 9.63974,34.5165 q -4.97535,-2.4877 -9.01782,-7.1521 -3.73151,-4.9753 -5.59727,-11.8164 -0.93288,-2.1768 -3.1096,-6.5302 -2.17671,-4.3534 -4.97535,-9.3288 -2.79863,-4.9753 -4.04247,-7.463 -1.24383,-2.7986 -0.62192,-2.7986 1.5548,-1.2439 5.90823,0.3109 4.35343,1.5548 8.08495,5.2863 5.28631,-2.7986 13.68221,-6.5301 8.3959,-4.0425 11.19454,-4.6644 3.73151,-1.2438 12.12741,0.9329 8.70686,1.8657 7.46303,4.6644 0,0 -3.42056,4.9753 -3.42055,4.9754 -8.08494,8.3959 0,0 4.97535,-2.4877 5.28631,-2.7986 11.19454,-8.3959 -7.15207,10.5727 -17.10277,21.7672 -9.9507,11.1945 -17.41372,15.8589 0,0 -0.31096,0.311 -0.31096,0 -0.31096,0 0.62192,2.7986 0.62192,4.0425 0,1.2438 -1.24384,0.6219 z"
           style="font-style:normal;font-variant:normal;font-weight:normal;font-stretch:normal;font-size:248.76750183px;font-family:CRCandGRyuurei-M04;-inkscape-font-specification:'CRCandGRyuurei-M04, Normal';font-variant-ligatures:normal;font-variant-caps:normal;font-variant-numeric:normal;font-feature-settings:normal;text-align:start;writing-mode:lr-tb;text-anchor:start;stroke-width:2.08861017"
           id="path4563"
           inkscape:connector-curvature="0" />
      </g>
      <g
         aria-label="論"
         style="font-style:normal;font-variant:normal;font-weight:normal;font-stretch:normal;font-size:248.76750183px;line-height:1.25;font-family:CRCandGRyuurei-M04;-inkscape-font-specification:'CRCandGRyuurei-M04, Normal';font-variant-ligatures:normal;font-variant-caps:normal;font-variant-numeric:normal;font-feature-settings:normal;text-align:start;letter-spacing:0px;word-spacing:0px;writing-mode:lr-tb;text-anchor:start;fill:#000000;fill-opacity:1;stroke:none;stroke-width:2.08861017"
         id="text4537"
         transform="matrix(0.47878732,0,0,0.47878732,366.93712,792.91533)">
        <path
           d="m 1231.7335,-1211.8051 q -0.6219,0.6219 -1.2438,1.2438 -0.6219,0.3109 -0.9329,1.2438 1.2438,0.9329 7.463,10.2617 6.2192,9.0178 15.237,18.0356 6.2192,6.2192 23.6329,20.2124 17.7247,13.6822 28.2973,19.2795 4.0425,2.1767 9.0179,3.7315 5.2863,1.2438 8.3959,1.2438 l 0.9328,1.8658 q -4.6643,5.2863 -23.0109,4.0424 -18.3466,-1.2438 -23.011,-4.9753 -4.3535,-3.7315 -13.0603,-13.6822 -8.3959,-9.9507 -11.8165,-14.9261 -2.4877,-3.7315 -11.1945,-13.3712 -8.7069,-9.6398 -17.4138,-19.2795 -0.6219,1.2438 -1.8657,3.7315 -1.2438,2.1767 -1.8658,3.4206 -9.9507,18.3466 -23.9438,38.8699 -13.9932,20.5233 -27.0535,27.3644 l -1.2438,-0.6219 q 8.7068,-8.7069 16.7918,-22.0781 8.3959,-13.6822 14.6151,-26.7425 6.2191,-13.0603 10.8835,-25.1877 4.9754,-12.4384 5.5973,-13.0603 0.9329,-3.7315 0.9329,-6.2192 0,-2.7987 -0.9329,-4.0425 -1.2438,-1.8657 -0.311,-3.1096 1.2439,-1.5548 4.3535,-0.9329 0.9329,0 5.9082,0.9329 5.2863,0.9329 6.8411,2.1767 1.5548,1.5548 1.8658,4.9754 0.3109,3.4205 -1.8658,5.5973 z m 17.4137,70.5877 q -3.4205,1.8658 -11.5055,5.5973 -8.0849,3.7315 -11.1945,4.0425 -2.1767,0 -13.3713,7.463 -10.8835,7.1521 -17.4137,9.3288 4.0425,-2.7987 13.9932,-9.9507 9.9507,-7.1521 11.1945,-8.085 -4.6644,0.9329 -11.1945,1.5548 -6.5302,0.311 -10.5726,0.311 -1.5548,0 -2.7987,-0.6219 -0.9328,-0.6219 -1.5548,-1.2439 -0.3109,-0.9328 0,-1.2438 0.311,-0.6219 1.8658,-0.6219 0.9329,0 2.4877,-0.6219 1.8657,-0.622 5.2863,-1.8658 3.1096,-1.5548 14.926,-7.1521 12.1275,-5.5972 15.859,-5.2863 3.7315,0 7.463,0.9329 4.0425,0.9329 5.9082,2.1767 2.1767,1.2439 2.4877,2.4877 0.6219,1.2438 -1.8658,2.7986 z m -80.8494,-65.6124 q 1.8658,3.1096 -0.6219,5.5973 -2.1767,2.4876 -4.3535,1.5548 -3.4205,-2.1767 -8.7068,-0.9329 -5.2863,0.9329 -11.5055,4.0425 -5.9082,2.7986 -10.8836,5.9082 -4.9753,2.7986 -9.9507,6.2192 17.1028,-12.4384 20.8343,-16.7918 4.0425,-4.6644 4.0425,-4.6644 -4.9754,-3.4206 -7.1521,-6.5302 -1.8658,-3.1096 -1.8658,-4.6644 0,-1.2438 4.9754,0.311 5.2863,1.5548 9.3288,2.1767 4.0424,0 8.3959,2.1767 4.6644,1.8658 7.463,5.5973 z m 74.6302,99.507 q 0,0.6219 -0.3109,4.9754 -0.311,4.3534 -0.311,6.2191 0.6219,0 0.9329,0 0.311,0 0.6219,0 4.0425,0 5.5973,1.2439 1.5548,0.9329 0.6219,2.4877 -0.6219,1.5547 -2.4877,2.7986 -1.5548,1.2438 -2.7986,1.2438 -0.6219,0 -1.2438,0 -0.311,0 -1.5548,0 -0.6219,6.8411 -0.9329,13.9932 0,7.1521 0,10.8836 2.7986,1.5548 7.1521,2.4876 4.3534,0.9329 6.5301,0.9329 4.3534,-7.152 7.463,-26.4315 3.4206,-19.2795 2.4877,-26.4316 -5.5973,-1.8657 -12.1274,-2.1767 -6.5302,-0.3109 -13.9932,0.9329 2.1767,1.8658 3.1096,3.4205 1.2438,1.2439 1.2438,3.4206 z m -37.937,55.9727 q 0,2.7986 -4.0425,0.9329 -3.7315,-1.8658 -6.8411,-5.9083 -2.7986,-3.7315 -10.8836,-20.2123 -7.7739,-16.7918 -9.0178,-20.5233 -2.4876,-6.2192 0,-5.5973 2.4877,0.311 6.8411,1.8657 0.311,0 1.2439,0.622 1.2438,0.6219 1.8657,0.9328 8.3959,-3.4205 23.011,-8.7068 14.9261,-5.5973 18.6576,-6.5302 4.6644,-1.5548 21.4562,-3.7315 16.7918,-2.1767 22.3891,-1.5548 2.1767,0 9.3287,4.9754 7.4631,4.9753 10.5727,7.463 1.2438,1.2438 0.9328,2.4877 0,0.9329 -1.2438,2.7986 -1.2438,0.9329 -2.7986,4.0425 -1.2439,2.7986 -1.8658,5.9082 -0.311,0.9329 -4.0425,16.4809 -3.7315,15.5479 -3.7315,18.6575 -0.9329,3.4206 -4.9753,11.1946 -3.7315,7.7739 -5.9083,10.2616 -2.4876,2.1767 -4.6643,1.8658 -1.8658,-0.311 -3.1096,-2.1767 -1.8658,-2.1768 -4.9754,-6.5302 -3.1096,-4.3534 -4.0425,-6.2192 -0.9328,-1.8657 -3.4205,-4.6644 -2.4877,-3.1096 -5.5973,-5.5972 -0.6219,1.2438 -2.1767,4.6644 -1.2438,3.1096 -1.5548,4.9753 -1.2438,3.7315 -4.6644,11.1945 -3.4205,7.4631 -5.2863,10.2617 l -1.5548,-1.2438 q 1.8658,-2.7987 3.4206,-7.1521 1.8657,-4.6644 2.1767,-8.7069 0.3109,-3.7315 0.9329,-18.6575 0.9328,-14.9261 1.2438,-23.9439 -3.7315,0 -7.1521,0.6219 -3.4205,0.6219 -5.2863,1.2439 -0.6219,4.6643 -0.9329,9.9507 0,4.9753 0,6.5301 0,1.2438 -0.9328,1.8658 -0.622,0.3109 -1.8658,0.3109 -1.2438,0 -3.7315,-1.8657 -2.4877,-2.1768 -3.7315,-4.6644 -0.6219,-1.2439 -1.2439,-2.7987 -0.3109,-1.8657 -0.3109,-3.7315 -2.4877,0.6219 -4.3535,1.2439 -1.8657,0.6219 -2.7986,0.6219 -1.2438,-0.311 -2.1767,-0.6219 -0.9329,-0.622 -1.5548,-0.9329 -0.311,-0.6219 -0.311,-0.9329 0.311,-0.6219 1.2439,-0.6219 0.9329,-0.6219 3.4205,-1.5548 2.4877,-1.2438 6.2192,-2.7986 -0.6219,-4.0425 -0.6219,-7.774 0,-4.0425 0,-5.9083 -0.311,-2.4876 0.311,-2.4876 0.9328,-0.311 2.4876,0.9328 1.5548,1.2439 2.7987,3.1096 1.2438,1.5548 1.2438,2.1768 0,0.9328 0.311,3.1096 0.3109,1.8657 1.2438,4.0424 l 3.1096,-1.2438 q 1.8658,-4.0425 2.7986,-6.5302 1.2439,-2.4876 2.4877,-3.1096 -0.9329,1.8658 -1.5548,4.0425 -0.6219,1.8658 -0.6219,4.3534 2.7986,-1.2438 5.5973,-1.8657 3.1096,-0.9329 5.9082,-1.5548 0,-5.2863 -0.9329,-10.5726 -0.9329,-5.2863 -2.7986,-7.1521 -3.1096,0.6219 -8.085,2.1767 -4.9753,1.2439 -6.2192,1.8658 -10.2616,3.4205 -15.8589,8.3959 -5.5973,4.9753 -8.3959,11.1945 0.9329,2.7987 7.463,18.6576 6.8411,15.8589 7.1521,18.3466 z m -28.2973,-116.6098 q 1.5548,3.1096 0.311,3.7315 -1.2439,0.622 -8.085,0.9329 -2.1767,0 -14.6151,0.311 -12.1274,0 -20.2123,2.7986 -9.3288,2.4877 -19.5905,6.5302 -9.9507,3.7315 -12.4383,4.6643 -3.7316,0.9329 -8.396,-1.5548 -4.6643,-2.4876 -7.463,-5.2863 -1.5548,-1.2438 10.8836,-2.4876 12.7493,-1.2439 15.237,-1.5548 3.7315,-0.9329 6.8411,-1.5548 3.4206,-0.9329 4.6644,-1.2439 1.2438,-0.3109 3.4206,-0.6219 2.1767,-0.6219 10.2616,-2.7986 1.2439,-0.6219 9.6398,-2.4877 8.7068,-1.8658 11.5055,-2.4877 3.4205,-1.5548 9.6397,-0.6219 6.2192,0.6219 8.3959,3.7315 z m -12.1274,31.096 q 2.1767,0.9328 -1.5548,2.7986 -3.4206,1.8658 -9.6398,3.4205 -5.2863,0.9329 -14.3041,5.9083 -9.0178,4.9753 -14.6151,9.3288 7.1521,-7.1521 9.3288,-10.5727 2.1767,-3.7315 2.1767,-3.7315 -3.1096,0 -5.2863,-0.3109 -2.1767,-0.622 -3.4205,-1.2439 -1.2439,-0.6219 -1.8658,-0.9328 -0.311,-0.622 -0.311,-0.622 8.7069,-4.9753 16.4809,-6.8411 7.774,-1.8657 7.774,-1.8657 3.7315,-0.9329 7.152,0.3109 3.4206,1.2439 8.085,4.3535 z m -0.311,24.2548 q 1.5548,0.9329 -0.9329,3.7315 -2.1767,2.7986 -5.5972,4.0425 -4.6644,1.5548 -15.237,6.5301 -10.5726,4.9754 -18.9686,9.0178 6.5302,-3.1095 9.0179,-6.8411 2.7986,-4.0424 2.7986,-4.0424 -5.9082,-2.7987 -8.7069,-4.0425 -2.4876,-1.5548 -2.4876,-1.5548 -2.1767,-1.8658 11.5055,-5.5973 13.9931,-4.0424 16.4808,-4.9753 1.5548,-0.9329 4.6644,0.3109 3.4206,1.2439 7.463,3.4206 z m -37.0041,45.0891 q 0.6219,0.9329 1.2438,2.4877 0.6219,1.5548 1.2438,3.1096 0.311,2.1767 1.5548,6.8411 1.5548,4.3534 2.1767,5.9082 0.311,-0.311 0.311,-0.311 0.311,-0.3109 0.6219,-0.6219 7.774,-7.152 13.3713,-17.1027 5.9082,-9.9507 1.2438,-9.9507 -5.2863,0.3109 -13.0603,4.6644 -7.463,4.0424 -8.7068,4.9753 z m 9.9507,34.8275 q -5.2863,-2.7987 -9.3288,-7.774 -3.7315,-4.9754 -5.5973,-11.8165 -0.9329,-2.1767 -3.1096,-5.9082 -1.8657,-4.0425 -4.9753,-9.0178 -2.7987,-5.2863 -4.3535,-8.085 -1.2438,-3.1096 -0.3109,-3.1096 1.5548,-0.9329 5.9082,0.6219 4.3534,1.2439 8.0849,5.2864 5.9083,-3.1096 13.9932,-6.8412 8.3959,-3.7315 10.8836,-4.3534 3.7315,-1.2438 12.1274,0.9329 8.7069,1.8657 7.774,4.3534 0,0 -3.4206,5.2863 -3.4205,4.9754 -8.3959,8.3959 0,0 5.2864,-2.4876 5.2863,-2.7987 10.8835,-8.3959 -6.5301,10.2616 -16.7918,21.4562 -9.9507,11.1945 -17.4137,16.1698 -0.311,0 -0.6219,0.311 0,0 -0.311,0 0.6219,3.1096 0.6219,4.3534 0,0.9329 -0.9328,0.622 z"
           style="font-style:normal;font-variant:normal;font-weight:normal;font-stretch:normal;font-size:248.76750183px;font-family:CRCandGRyuurei-M04;-inkscape-font-specification:'CRCandGRyuurei-M04, Normal';font-variant-ligatures:normal;font-variant-caps:normal;font-variant-numeric:normal;font-feature-settings:normal;text-align:start;writing-mode:lr-tb;text-anchor:start;stroke-width:2.08861017"
           id="path4560"
           inkscape:connector-curvature="0" />
      </g>
      <g
         aria-label="小"
         style="font-style:normal;font-variant:normal;font-weight:normal;font-stretch:normal;font-size:248.76750183px;line-height:1.25;font-family:CRCandGRyuurei-M04;-inkscape-font-specification:'CRCandGRyuurei-M04, Normal';font-variant-ligatures:normal;font-variant-caps:normal;font-variant-numeric:normal;font-feature-settings:normal;text-align:start;letter-spacing:0px;word-spacing:0px;writing-mode:lr-tb;text-anchor:start;fill:#000000;fill-opacity:1;stroke:none;stroke-width:2.08861017"
         id="text4529"
         transform="matrix(0.47878732,0,0,0.47878732,368.89254,799.08594)">
        <path
           d="m 728.56621,-1107.1736 q -3.42055,2.4877 -17.72468,-14.3041 -14.30413,-17.1028 -15.23701,-18.0356 -2.48768,-2.7987 -4.04247,-5.2863 -1.24384,-2.4877 -0.31096,-4.0425 0.93287,-1.5548 5.90822,0 5.28631,1.2438 16.16989,6.5301 10.57262,10.2617 15.85893,19.2795 5.28631,8.7069 -0.62192,15.8589 z m -138.06596,-33.2726 q -2.79864,3.4205 -10.26166,12.7493 -7.15207,9.0178 -7.46303,12.1274 0,0.311 -0.31096,1.2439 0,0.6219 0,1.2438 1.24384,0.6219 11.19454,6.5302 10.26166,5.5972 18.65756,9.9507 8.39591,4.0424 14.92605,6.2191 6.53015,1.8658 7.46303,-0.6219 1.5548,-4.6644 0,-35.4493 -1.24384,-30.785 -4.97535,-40.4248 -0.31096,-3.7315 0,-10.8835 0.62192,-7.1521 0.62192,-11.1946 0,-4.0425 -1.24384,-7.774 -1.24384,-4.0424 -4.35343,-6.2192 -1.86576,-1.2438 -3.73151,-5.2863 -1.86576,-4.0424 -1.86576,-7.7739 0,-3.7316 2.79863,-4.9754 2.79864,-1.2438 9.9507,1.8658 13.37126,11.5055 21.14524,18.9685 8.08495,7.463 5.59727,12.1274 -2.79863,3.1096 -4.35343,21.1452 -1.24384,17.7247 -1.5548,39.8028 -0.31096,22.0782 -0.31096,43.2234 0.31096,20.8343 0.31096,21.7671 0,4.6644 -3.42055,8.7069 -3.10959,4.0425 -7.15207,-1.2438 -7.77398,-9.6398 -20.83427,-20.2124 -13.0603,-10.8836 -17.10277,-15.8589 -2.79863,-4.3534 -12.12742,-12.7494 -9.01782,-8.3959 -9.9507,-9.3287 -1.55479,8.0849 -5.90822,14.926 -4.04248,6.5302 -9.32879,1.8658 -1.55479,-1.5548 -5.59726,-4.6644 -3.73152,-3.1096 -5.28631,-5.2863 -1.24384,-2.1767 -1.5548,-5.9083 0,-4.0424 1.24384,-11.1945 0,-1.5548 0,-2.7986 0,-1.2439 0.62192,-1.5548 0.62191,-0.311 2.17671,0.9329 1.5548,1.2438 4.66439,5.2863 3.42056,3.1096 5.59727,3.7315 2.17672,0.3109 7.46303,-3.7315 2.79863,-2.7987 12.12741,-9.6398 9.32878,-7.152 12.12742,-9.6397 z"
           style="font-style:normal;font-variant:normal;font-weight:normal;font-stretch:normal;font-size:248.76750183px;font-family:CRCandGRyuurei-M04;-inkscape-font-specification:'CRCandGRyuurei-M04, Normal';font-variant-ligatures:normal;font-variant-caps:normal;font-variant-numeric:normal;font-feature-settings:normal;text-align:start;writing-mode:lr-tb;text-anchor:start;stroke-width:2.08861017"
           id="path4566"
           inkscape:connector-curvature="0" />
      </g>
    </g>
    <g
       transform="translate(-238.99439,4.1928839)"
       id="g4924">
      <g
         aria-label="的"
         style="font-style:normal;font-variant:normal;font-weight:normal;font-stretch:normal;font-size:248.76750183px;line-height:1.25;font-family:CRCandGRyuurei-M04;-inkscape-font-specification:'CRCandGRyuurei-M04, Normal';font-variant-ligatures:normal;font-variant-caps:normal;font-variant-numeric:normal;font-feature-settings:normal;text-align:start;letter-spacing:0px;word-spacing:0px;writing-mode:lr-tb;text-anchor:start;fill:#000000;fill-opacity:1;stroke:none;stroke-width:2.13134646"
         id="text4541"
         transform="matrix(0.46918698,0,0,0.46918698,659.69519,777.77957)">
        <path
           d="m 724.98396,-1392.9318 q -3.42055,3.1095 -18.96852,46.6439 -15.23701,43.2233 -18.3466,52.8631 -2.17672,5.9082 -10.57262,14.615 -8.08495,8.7069 -12.12742,4.6644 -4.35343,-4.0424 -13.06029,-17.7246 -8.3959,-13.9932 -10.57262,-15.548 -4.04247,-2.4877 -7.46303,-8.7069 -3.42055,-6.2192 -3.73151,-10.2616 -0.31096,-2.4877 -0.31096,-3.1096 0,-0.9329 0.31096,-0.311 0.62192,0.311 1.5548,1.5548 0.93288,0.9329 3.10959,3.7315 4.66439,6.8411 18.96852,15.548 14.30414,8.3959 17.10277,1.8657 5.59727,-14.926 16.48085,-52.5521 10.88358,-37.937 7.15206,-39.4918 -13.68221,-5.5973 -37.31512,2.7986 -23.63291,8.0849 -25.18771,18.6576 -0.62192,2.7986 -1.5548,3.7315 -0.93288,0.6219 -2.17671,-0.311 -1.24384,-0.9329 -2.48768,-2.7986 -0.93288,-1.8658 -1.86576,-4.3534 -0.62191,-0.9329 -2.17671,-3.4206 -1.5548,-2.4877 -1.86576,-4.0425 0,-1.8657 0.93288,-3.7315 1.24384,-2.1767 4.35343,-5.2863 3.42055,-4.3534 4.35343,-6.8411 1.24384,-2.4877 1.86576,-7.463 0.31096,-4.3535 3.10959,-7.774 2.79864,-3.4206 4.04248,-5.2863 3.42055,-5.9083 5.2863,-13.6822 2.17672,-8.085 0,-9.6398 0,0 -0.62191,-0.6219 -0.62192,-0.6219 -1.24384,-1.5548 -0.31096,-0.9329 -0.31096,-1.8657 0,-1.2439 1.24384,-2.4877 5.90822,0 10.88357,0.6219 4.97535,0.6219 4.97535,6.8411 0,4.9754 -3.42055,13.3713 -3.10959,8.0849 -8.08494,18.6575 -4.97535,10.2617 -7.15207,14.3042 -2.17671,3.7315 -0.31096,3.1095 3.42056,-2.4876 15.23701,-5.5972 11.81646,-3.1096 15.85893,-2.4877 4.04247,0 9.01782,-0.9329 4.97535,-1.2438 8.70686,-2.7986 2.79864,-1.5548 9.32879,0.3109 6.53014,1.8658 9.01782,2.4877 6.21919,1.2439 13.37125,6.5302 7.15207,4.9753 4.66439,7.774 z m -67.16722,46.9548 q -0.62192,1.5548 -3.73152,2.1767 -2.79863,0.311 -6.8411,0 -4.04247,-0.3109 -6.53015,-1.2438 -2.48767,-0.9329 -1.86576,-1.8658 1.5548,-4.0424 -2.17671,-7.463 -3.73151,-3.7315 -7.77399,-3.7315 0,0 -0.93287,-0.311 -0.62192,-0.3109 -1.24384,-0.6219 -0.31096,-0.6219 0,-1.8657 0.31096,-1.5548 2.17671,-3.4206 12.74934,-2.1767 21.76716,1.8658 9.32878,3.7315 7.15207,16.4808 z m -74.63025,10.8836 q -6.21919,7.1521 -12.74934,14.3041 -6.21919,7.1521 -6.53015,9.3288 -0.93287,3.1096 -4.04247,4.0425 -2.79863,0.9329 -5.28631,-1.2439 -4.66439,-3.7315 -15.23701,-33.8945 -10.57262,-30.1631 -12.12741,-31.7179 0,0 -0.93288,-0.6219 -0.62192,-0.9329 -0.93288,-1.8658 0,-0.9328 0.62192,-1.8657 0.62192,-1.2439 3.10959,-1.8658 1.24384,0 3.42056,0.311 2.48767,0.3109 4.97535,0.9329 0,-0.311 0.62192,-1.5548 0.93287,-1.2439 1.86575,-2.1767 7.46303,-9.3288 19.9014,-28.6083 12.43838,-19.2795 10.88358,-22.7 0,0 -0.93288,-1.2439 -0.62192,-1.5548 -1.24383,-3.1096 -0.31096,-1.5548 0,-2.7986 0.62191,-1.5548 2.48767,-2.1767 2.79863,1.5548 6.53015,3.7315 3.73151,1.8657 6.8411,4.3534 3.1096,2.1767 4.04248,4.3534 1.24383,2.1768 -0.62192,3.7316 -3.42056,2.1767 -23.94388,23.6329 -20.52331,21.1452 -22.70003,24.5658 -0.31096,0 -0.31096,0.3109 0,0.311 0,0.6219 1.86576,0.311 3.42055,1.2439 1.5548,0.9329 1.5548,2.4877 0,1.5548 1.24384,7.7739 1.24384,5.9083 3.10959,13.0603 2.79864,-2.4876 7.77399,-4.9753 4.97535,-2.7986 9.32878,-4.6644 1.55479,-0.9329 3.42055,-0.9329 1.86576,0 3.10959,1.2439 1.24384,0.9328 1.24384,2.1767 0,1.2438 -1.24384,2.7986 -4.04247,3.7315 -7.46302,6.8411 -3.10959,3.1096 -4.35343,5.5973 -1.5548,2.1767 -1.86576,-0.6219 0,-2.7987 -1.86575,-1.8658 -1.5548,0 -3.42056,0 -1.86575,0 -3.42055,0 2.48767,11.8165 4.97535,19.2795 2.48767,7.463 4.04247,6.2192 2.79864,-3.4206 12.12742,-10.5726 9.32878,-7.1521 11.50549,-8.7069 1.24384,-14.3041 0.93288,-27.6754 -0.31096,-13.3712 -2.48767,-13.9932 -3.73152,-1.2438 -14.30413,0.9329 -10.26166,2.1767 -15.85893,5.9082 0,0 -0.93288,0.311 -0.93288,0.311 -1.86576,0.311 -0.93287,0 -1.55479,-1.2439 -0.62192,-1.2438 -0.31096,-3.7315 1.55479,-1.5548 17.72468,-5.9082 16.16989,-4.3534 17.41373,-6.5302 1.24383,-3.1096 5.28631,-2.7986 4.04247,0 9.9507,2.7986 5.28631,2.1768 8.08494,5.9083 2.79863,3.4205 0.31096,5.9082 -4.04247,4.0425 -6.84111,29.2302 -2.79863,24.8767 -2.79863,33.8945 0,5.5973 -2.17672,11.5055 -2.17671,5.5973 -6.21918,3.1096 -5.90823,-3.7315 -9.01783,-9.3287 -2.79863,-5.5973 1.86576,-11.8165 0.31096,-1.2438 0.93288,-3.7315 0.62192,-2.7986 0.93288,-6.2192 z"
           style="font-style:normal;font-variant:normal;font-weight:normal;font-stretch:normal;font-size:248.76750183px;font-family:CRCandGRyuurei-M04;-inkscape-font-specification:'CRCandGRyuurei-M04, Normal';font-variant-ligatures:normal;font-variant-caps:normal;font-variant-numeric:normal;font-feature-settings:normal;text-align:start;writing-mode:lr-tb;text-anchor:start;stroke-width:2.13134646"
           id="path4557"
           inkscape:connector-curvature="0" />
      </g>
      <g
         aria-label="私"
         style="font-style:normal;font-variant:normal;font-weight:normal;font-stretch:normal;font-size:248.76750183px;line-height:1.25;font-family:CRCandGRyuurei-M04;-inkscape-font-specification:'CRCandGRyuurei-M04, Normal';font-variant-ligatures:normal;font-variant-caps:normal;font-variant-numeric:normal;font-feature-settings:normal;text-align:start;letter-spacing:0px;word-spacing:0px;writing-mode:lr-tb;text-anchor:start;fill:#000000;fill-opacity:1;stroke:none;stroke-width:2.13134646"
         id="text4545"
         transform="matrix(0.46918698,0,0,0.46918698,642.44953,777.60659)">
        <path
           d="m 456.62702,-1358.1044 q -3.73151,4.0425 -10.26166,7.774 -6.53015,3.7315 -14.61509,6.2192 -14.92605,3.7315 -30.16306,9.6397 -14.92605,5.9082 -18.34661,8.3959 -1.55479,0.6219 -4.35343,-1.2438 -2.48767,-2.1767 -4.97535,-5.5973 -2.17671,-3.4205 -2.48767,-6.2192 0,-3.1096 3.10959,-4.0424 8.08495,-3.4206 26.74251,-33.8946 18.65756,-30.785 18.96852,-45.4001 -1.5548,-4.6644 1.5548,-4.0425 3.42055,0.311 8.08494,3.7316 4.66439,3.4205 7.46303,7.7739 2.79863,4.3535 0.62192,6.8411 -2.79864,2.7987 -21.4562,32.0289 -18.34661,28.9192 -20.52332,30.163 0.93288,-0.3109 9.63974,-2.1767 8.70686,-2.1767 17.10277,-4.0425 8.3959,-1.8657 17.10276,-4.3534 8.70686,-2.4877 14.30413,-4.3534 -8.3959,-9.3288 -12.12741,-13.9932 -3.73152,-4.6644 -1.5548,-5.2863 11.81646,-3.1096 25.49867,9.0178 13.99317,11.8165 21.4562,27.3644 3.42055,7.774 3.42055,13.3713 0,5.5973 -4.66439,7.463 -4.35343,-2.1767 -12.43838,-6.2192 -7.77398,-4.0424 -9.9507,-4.9753 1.24384,-0.6219 4.97535,-1.2439 3.73152,-0.9328 3.73152,-2.7986 -0.31096,-1.8658 -4.35344,-6.5301 -3.73151,-4.6644 -11.50549,-13.3713 z m -96.70837,-27.3644 q -1.86575,0 -3.73151,0.3109 -1.86576,0.311 -4.04247,1.2439 l -0.31096,2.4877 q 2.17671,0.3109 2.79863,1.2438 0.93288,0.9329 0,2.4877 -0.62192,0.3109 -2.17671,2.7986 -1.24384,2.1767 -1.5548,3.1096 -0.62192,4.6644 -0.93288,9.6397 0,4.6644 0,9.9507 9.01782,-8.7068 15.23701,-15.237 6.53015,-6.8411 8.3959,-10.8836 0.62192,3.1096 -8.08494,15.2371 -8.3959,11.8164 -15.54797,17.4137 l -0.31096,0.3109 q -0.93288,21.4562 -0.62192,42.2905 0.62192,20.5233 1.24384,23.6329 0.93288,4.3535 -0.93288,8.7069 -1.55479,4.0425 -3.73151,1.8657 -3.42055,-3.4205 -7.15207,-10.2616 -3.73151,-6.8411 -2.48767,-9.6398 0.31096,-1.5548 0.93288,-14.615 0.93288,-13.0603 2.17671,-33.2727 -9.32878,7.774 -18.96852,17.1028 -9.63974,9.0178 -12.74933,12.7493 -1.24384,0.9329 -3.42056,-1.2438 -2.17671,-2.4877 -4.04247,-6.5302 -1.5548,-4.0425 -1.5548,-7.774 0,-4.0424 2.79864,-6.2192 7.77398,-7.463 20.21236,-23.0109 12.43837,-15.548 14.92605,-25.4987 -16.48085,8.0849 -33.58361,20.8343 -17.10277,12.4383 -21.76716,18.3466 -1.86576,1.8657 -7.77398,-0.622 -5.59727,-2.7986 -10.88358,-7.152 -2.17672,-1.8658 -3.1096,-3.1096 -0.93287,-1.5548 -1.24383,-2.4877 0,-0.9329 0.93287,-0.9329 0.93288,-0.3109 3.73152,0.311 3.73151,2.7986 10.26166,0.6219 6.8411,-2.4877 19.27948,-9.6397 12.74933,-7.1521 24.56579,-14.3042 11.81645,-7.152 23.94387,-12.1274 0,-16.4808 0,-25.8096 0,-9.6397 -0.62192,-10.5726 l -0.31096,-0.311 q -18.03564,8.7069 -27.98634,13.3713 -9.63974,4.3534 -15.23701,4.6644 l -0.31096,-1.5548 q 13.37125,-6.8411 39.18088,-23.633 25.80963,-16.7918 23.63291,-19.9014 -1.24383,-4.9753 4.66439,-4.9753 6.21919,0 13.68222,3.4206 7.77398,3.1095 10.57262,6.8411 2.79863,3.4205 -3.73152,4.6643 -7.77398,1.2439 -16.16988,4.3535 -8.39591,3.1096 -19.27949,8.0849 4.66439,3.1096 7.46303,7.4631 3.10959,4.0424 1.86576,7.463 -1.5548,4.0424 -3.1096,9.6397 -1.24384,5.2863 -1.86575,11.8165 l 2.79863,-0.6219 q 1.86576,-0.9329 4.04247,0 2.48768,0.6219 4.04247,2.1767 1.5548,1.5548 0.62192,3.1096 -0.93288,1.2438 -4.66439,2.1767 z"
           style="font-style:normal;font-variant:normal;font-weight:normal;font-stretch:normal;font-size:248.76750183px;font-family:CRCandGRyuurei-M04;-inkscape-font-specification:'CRCandGRyuurei-M04, Normal';font-variant-ligatures:normal;font-variant-caps:normal;font-variant-numeric:normal;font-feature-settings:normal;text-align:start;writing-mode:lr-tb;text-anchor:start;stroke-width:2.13134646"
           id="path4554"
           inkscape:connector-curvature="0" />
      </g>
      <g
         aria-label="極"
         style="font-style:normal;font-variant:normal;font-weight:normal;font-stretch:normal;font-size:248.76750183px;line-height:1.25;font-family:CRCandGRyuurei-M04;-inkscape-font-specification:'CRCandGRyuurei-M04, Normal';font-variant-ligatures:normal;font-variant-caps:normal;font-variant-numeric:normal;font-feature-settings:normal;text-align:start;letter-spacing:0px;word-spacing:0px;writing-mode:lr-tb;text-anchor:start;fill:#000000;fill-opacity:1;stroke:none;stroke-width:2.13134646"
         id="text4549"
         transform="matrix(0.46918698,0,0,0.46918698,631.65808,787.20913)">
        <path
           d="m 167.22436,-1368.1172 q 0,6.5302 -0.31096,10.5726 0,4.0425 0,7.774 2.79863,-1.8657 5.90822,-5.2863 3.1096,-3.4205 6.53015,-7.774 -3.42055,-2.1767 -6.53015,-3.4205 -3.10959,-1.2439 -5.59726,-1.8658 z m -13.0603,-9.3288 q -7.15206,5.9083 -13.99317,13.3713 -6.84111,7.463 -10.88358,13.3713 6.21919,5.5972 14.30413,10.2616 8.39591,4.6644 9.32878,0.6219 0.62192,-4.9753 0.93288,-13.9931 0.31096,-9.0179 0.31096,-23.633 z m -35.13841,8.3959 q 0.31096,3.1096 0.62192,6.8412 0.62192,3.4205 1.5548,7.152 4.35343,-6.8411 6.8411,-13.9932 2.79864,-7.463 0.31096,-7.7739 -2.17671,-0.311 -5.28631,3.4205 -3.10959,3.4206 -4.04247,4.3534 z m 100.43988,70.2769 q -3.73151,-1.8658 -12.43837,-5.5973 -8.70687,-3.7315 -17.10277,-3.7315 -3.73151,0 -16.16989,-0.311 -12.12741,-0.6219 -18.96852,0 l -0.31096,0.6219 -0.62192,-0.6219 q -7.77398,0.6219 -14.92605,2.7987 -6.8411,2.1767 -13.99317,6.8411 -2.17672,1.2438 -5.59727,2.4876 -3.10959,0.9329 -5.59727,0.311 -4.35343,-1.2438 -12.74933,-3.1096 -8.084945,-2.1767 0,-5.2863 6.8411,0.311 11.81645,0 4.97535,-0.311 12.74934,-2.4877 4.04247,-1.2438 10.57262,-2.7986 6.8411,-1.8658 14.61509,-3.1096 -2.48768,-3.7315 -7.77399,-13.0603 -4.97535,-9.6397 -7.46302,-12.7493 -2.48768,-3.1096 -4.97535,-6.2192 -2.17672,-3.4206 -2.48768,-4.0425 -0.93287,0.9329 -1.24383,1.5548 -0.31096,0.311 -0.31096,0.6219 -0.62192,0.311 -0.93288,0.9329 -0.31096,0.311 -0.62192,0.9329 0,0.3109 0,0.9329 0.31096,0.3109 0.62192,0.6219 1.24384,5.2863 0.31096,7.463 -0.62192,2.1767 -5.28631,-2.1767 -6.53015,-6.2192 -10.88358,-20.2124 -4.04247,-14.3041 -4.66439,-15.8589 -0.93288,-1.5548 -0.93288,-3.1096 0,-1.5548 0.62192,-3.1096 0.62192,-1.5548 1.24384,-2.1767 0.93288,-0.6219 1.86575,0 1.24384,0.6219 3.73152,2.1767 2.79863,1.5548 4.66439,3.4206 1.24384,-0.9329 6.21919,-2.7987 5.2863,-1.8657 6.21918,-2.4876 0.93288,-1.2439 2.17672,-1.2439 1.5548,-0.3109 4.35343,-0.3109 2.17672,0 6.21919,2.1767 4.04247,2.1767 2.48767,4.0424 -1.24384,0.622 -2.79863,2.4877 -1.24384,1.5548 -2.17672,2.7987 -0.62192,1.2438 -0.31096,1.8657 0.62192,0.311 3.1096,-0.9329 1.86575,-1.5548 6.21918,-4.3534 4.66439,-2.7986 6.21919,-3.4206 0,-7.463 -0.31096,-15.5479 -0.31096,-8.3959 -0.31096,-8.7069 -0.31096,-2.4877 -4.04247,-2.4877 -3.73151,0 -8.08494,2.4877 -4.35343,2.1767 -9.01782,7.1521 -4.35344,4.9753 -4.6644,7.463 -0.93287,1.5548 -2.17671,1.8658 -0.93288,0 -2.79864,-1.5548 -2.48767,-1.5548 -3.10959,-8.3959 -0.31096,-7.1521 2.17672,-8.085 2.79863,0 13.06029,-14.926 10.57262,-14.9261 11.19454,-19.9014 0,-0.6219 0,-0.9329 0,-0.311 0.62192,-0.9329 -6.53015,1.2439 -11.81646,3.1096 -5.28631,1.5548 -9.63974,3.7315 -6.53015,2.7987 -9.9507,4.0425 -3.42055,0.9329 -6.21919,0.9329 -1.86575,-0.6219 -2.48767,-0.9329 -0.31096,-0.6219 0,-0.9329 0.62192,-0.3109 1.24383,-0.3109 0.93288,-0.311 0.93288,-0.311 7.77399,-3.7315 39.18088,-13.3713 31.71786,-9.6397 51.93022,-6.8411 1.86576,0.622 3.42055,2.7987 1.5548,2.1767 1.86576,4.3534 0.62192,2.1767 0,3.4206 -0.62192,0.9328 -2.48768,0.3109 -8.70686,-3.1096 -20.52331,-3.4205 -11.81646,-0.622 -24.25484,1.5548 4.6644,2.7986 7.46303,6.2191 2.79863,3.4206 -0.62192,4.9754 -3.10959,0.6219 -6.53015,3.1096 -3.10959,2.4877 -5.90822,5.5973 -2.48768,3.1096 -3.1096,5.2863 -0.62192,2.1767 0.93288,2.7986 4.35343,0.6219 10.88358,6.2192 6.53015,5.5973 6.21919,11.8164 0,3.7316 0,8.7069 0,4.6644 0,14.9261 1.86575,0.3109 5.90822,1.5548 4.04248,1.2438 9.63974,3.1095 2.17672,-4.6643 4.04248,-9.0178 2.17671,-4.6644 3.10959,-6.8411 0.62192,-2.1767 0.93288,-3.7315 0.62192,-1.5548 -0.31096,-2.4877 -0.93288,-0.9328 -3.73151,-0.6219 -2.79864,0.311 -8.39591,2.7986 -0.62192,0 -1.55479,-0.3109 -0.62192,-0.6219 -0.93288,-1.2438 0,-0.9329 0.62192,-1.8658 0.62192,-0.9329 2.79863,-1.5548 2.79864,-1.8658 8.08495,-3.7315 5.2863,-1.8658 5.90822,-1.8658 0.93288,-0.6219 2.79864,-0.9328 2.17671,-0.622 3.10959,0.3109 1.86576,0.9329 6.84111,5.9082 5.28631,4.6644 2.17671,5.9083 -1.55479,1.5548 -7.77398,9.9507 -6.21919,8.0849 -9.63974,12.7493 4.97535,2.4877 8.70686,4.9754 3.73151,2.4876 5.90823,5.5972 1.5548,1.8658 1.5548,3.7315 0.31096,1.8658 -0.93288,3.1096 -0.93288,0.9329 -2.48768,0.9329 -1.24383,0 -2.79863,-0.6219 -2.48768,-1.8658 -6.84111,-4.9754 -4.35343,-3.4205 -8.3959,-6.2191 -1.24384,1.2438 -1.86576,1.8657 -0.31096,0.311 -1.24383,1.2438 -5.90823,5.2864 -9.32879,8.085 -3.10959,2.4877 -6.21918,3.4205 -0.31096,2.4877 -0.62192,4.3535 -0.31096,1.5548 -0.31096,2.4876 -1.24384,2.1768 -3.42055,10.5727 -2.17672,8.0849 -4.04248,12.7493 14.30413,-2.4877 26.12059,-2.7986 12.12742,-0.622 19.9014,1.5548 5.59727,0.6219 10.26166,4.0424 4.66439,3.1096 6.84111,6.5302 2.48767,3.4205 1.55479,5.5973 -0.62192,2.1767 -3.73151,0.6219 z m -111.63442,-102.9276 q -6.8411,10.5726 -10.261655,15.548 -3.109594,4.6644 -7.152065,9.3288 -2.487675,2.4876 -7.463026,7.152 -4.66439,4.6644 -9.63974,9.6398 -0.621919,24.2548 -0.621919,38.8699 0.310959,14.6151 1.554797,19.5904 1.554797,8.085 1.865756,16.1699 0.31096,7.774 -4.042472,4.9754 -3.420553,-4.3535 -6.219187,-16.7918 -2.798635,-12.7494 -1.554797,-22.3891 0,-3.1096 0.310959,-12.1274 0.621919,-9.0178 1.243838,-20.8343 -13.682213,12.4384 -23.321954,21.1452 -9.63974,8.7069 -10.883578,8.7069 -4.042472,0 -5.908228,-9.6397 -1.554797,-9.9507 1.243838,-11.5055 6.219187,-1.2439 18.035643,-19.9014 12.127416,-18.9686 19.901401,-33.8946 0.310959,-0.6219 0.621918,-1.5548 0.31096,-0.9329 0.621919,-0.9329 0,0 -21.767156,10.8836 -21.456197,10.8836 -31.095938,17.1028 -6.2191876,0.9328 -10.2616595,0.9328 -3.73151252,-0.3109 -5.5972688,-1.2438 -1.5547969,-1.2438 -1.8657562,-2.4877 0,-1.5548 1.2438375,-2.1767 3.73151249,0 9.6397407,-2.4877 5.9082283,-2.4876 12.1274153,-6.5301 4.042472,-3.1096 19.590441,-10.2617 15.858928,-7.463 28.297303,-12.1274 0,-27.3644 -0.621918,-46.9549 -0.31096,-19.9014 -1.554797,-22.389 -0.932878,-0.9329 -1.243838,-2.4877 -0.310959,-1.8658 0,-3.1096 0.31096,-1.5548 1.243838,-1.8658 0.932878,-0.3109 2.176715,1.2439 5.597269,5.5972 11.816457,13.6822 6.530147,8.0849 4.97535,12.1274 -1.554797,4.0425 -4.353431,18.3466 -2.798635,14.3041 -4.353432,27.9864 2.176716,-0.9329 3.420553,-1.2439 1.554797,-0.3109 1.865757,0 4.353431,0.9329 8.706862,4.0425 4.353432,3.1096 0.621919,5.2863 -1.243837,0 -6.219188,0.311 -4.97535,0 -9.017821,1.2438 v 1.2438 q 3.420553,3.1096 5.286309,5.5973 1.865756,2.1767 0.621919,3.4206 -0.932878,0.6219 -2.798635,4.3534 -1.865756,3.7315 -3.420553,8.3959 l -0.310959,9.3288 q 0.310959,0 0.621919,-0.311 0.310959,-0.3109 0.621918,-0.3109 7.463025,-4.9754 17.413725,-14.3042 10.261664,-9.3288 14.615094,-16.7918 z"
           style="font-style:normal;font-variant:normal;font-weight:normal;font-stretch:normal;font-size:248.76750183px;font-family:CRCandGRyuurei-M04;-inkscape-font-specification:'CRCandGRyuurei-M04, Normal';font-variant-ligatures:normal;font-variant-caps:normal;font-variant-numeric:normal;font-feature-settings:normal;text-align:start;writing-mode:lr-tb;text-anchor:start;stroke-width:2.13134646"
           id="path4551"
           inkscape:connector-curvature="0" />
      </g>
    </g>
  </g>
  <path
     style="fill:none;stroke:#000000;stroke-width:3.00000024;stroke-linecap:butt;stroke-linejoin:miter;stroke-miterlimit:4;stroke-dasharray:none;stroke-opacity:1"
     d="m 307.1943,148.46075 h 82.7631"
     id="path4607"
     inkscape:connector-curvature="0" />
  <path
     style="fill:none;stroke:#000000;stroke-width:3;stroke-linecap:butt;stroke-linejoin:miter;stroke-miterlimit:4;stroke-dasharray:none;stroke-opacity:1"
     d="m 1029.0586,250.63226 h 86.187"
     id="path4609"
     inkscape:connector-curvature="0" />
  <g
     transform="matrix(-0.60489151,0,0,0.60442461,1027.2875,550.09198)"
     inkscape:label="golden ratio"
     id="layer5"
     style="stroke-width:1.65382719">
    <g
       transform="translate(1234.918,69.294067)"
       id="g4186"
       style="stroke-width:1.65382719">
      <rect
         style="display:inline;opacity:1;fill:none;fill-opacity:1;stroke:#000000;stroke-width:1.65382719;stroke-linecap:round;stroke-linejoin:round;stroke-miterlimit:4;stroke-dasharray:none;stroke-opacity:1"
         id="rect4162"
         width="617.99994"
         height="617.99994"
         x="-1234.918"
         y="56.800495" />
      <rect
         style="display:inline;opacity:1;fill:none;fill-opacity:1;stroke:#000000;stroke-width:1.65382719;stroke-linecap:round;stroke-linejoin:round;stroke-miterlimit:4;stroke-dasharray:none;stroke-opacity:1"
         id="rect4164"
         width="382.00006"
         height="381.99994"
         x="-616.91803"
         y="292.80048" />
      <rect
         style="display:inline;opacity:1;fill:none;fill-opacity:1;stroke:#000000;stroke-width:1.65382719;stroke-linecap:round;stroke-linejoin:round;stroke-miterlimit:4;stroke-dasharray:none;stroke-opacity:1"
         id="rect4166"
         width="233.80376"
         height="235.99998"
         x="-468.72174"
         y="56.800495" />
      <rect
         style="display:inline;opacity:1;fill:none;fill-opacity:1;stroke:#000000;stroke-width:1.65382719;stroke-linecap:round;stroke-linejoin:round;stroke-miterlimit:4;stroke-dasharray:none;stroke-opacity:1"
         id="rect4168"
         width="146.83757"
         height="146"
         x="-616.91803"
         y="56.800495" />
      <rect
         style="display:inline;opacity:1;fill:none;fill-opacity:1;stroke:#000000;stroke-width:1.65382719;stroke-linecap:round;stroke-linejoin:round;stroke-miterlimit:4;stroke-dasharray:none;stroke-opacity:1"
         id="rect4170"
         width="91.581001"
         height="89.999985"
         x="-616.91803"
         y="202.80049" />
      <rect
         style="display:inline;opacity:1;fill:none;fill-opacity:1;stroke:#000000;stroke-width:1.65382719;stroke-linecap:round;stroke-linejoin:round;stroke-miterlimit:4;stroke-dasharray:none;stroke-opacity:1"
         id="rect4172"
         width="55.256569"
         height="55.619999"
         x="-525.33704"
         y="237.18048" />
      <rect
         style="display:inline;opacity:1;fill:none;fill-opacity:1;stroke:#000000;stroke-width:1.65382719;stroke-linecap:round;stroke-linejoin:round;stroke-miterlimit:4;stroke-dasharray:none;stroke-opacity:1"
         id="rect4174"
         width="34.1488"
         height="34.37999"
         x="-504.22925"
         y="202.80049" />
      <path
         style="fill:none;fill-rule:evenodd;stroke:#ff0000;stroke-width:1.65382719px;stroke-linecap:butt;stroke-linejoin:miter;stroke-opacity:1"
         d="m -1234.918,56.800495 c 0,307.414415 248.3739,617.999925 618,617.999925 273.10947,0 382.00002,-239.34543 382.00002,-381.99994 0,-117.90666 -85.60747,-235.998524 -233.80376,-235.998524 -103.65015,0 -148.19626,91.882914 -148.19626,145.998534 0,41.74169 37.1619,89.99999 91.58096,89.99999 27.19643,0 54.93668,-21.24001 54.93668,-55.62 0,-34.37998 -33.82889,-34.37998 -33.82889,-34.37998"
         id="path4177"
         inkscape:connector-curvature="0"
         sodipodi:nodetypes="cssssssc" />
    </g>
  </g>
  <rect
     style="opacity:1;vector-effect:none;fill:none;fill-opacity:1;fill-rule:nonzero;stroke:#000000;stroke-width:0.49999997;stroke-linecap:butt;stroke-linejoin:round;stroke-miterlimit:4;stroke-dasharray:none;stroke-dashoffset:0;stroke-opacity:1;paint-order:markers fill stroke"
     id="rect4860"
     width="898.04004"
     height="505"
     x="256.55035"
     y="584.06891" />
  <text
     xml:space="preserve"
     style="font-style:normal;font-variant:normal;font-weight:normal;font-stretch:normal;font-size:29.59066772px;line-height:1.25;font-family:'02うつくし明朝体';-inkscape-font-specification:'02うつくし明朝体, Normal';font-variant-ligatures:normal;font-variant-caps:normal;font-variant-numeric:normal;font-feature-settings:normal;text-align:start;letter-spacing:0px;word-spacing:0px;writing-mode:lr-tb;text-anchor:start;fill:#000000;fill-opacity:1;stroke:none;stroke-width:0.99999994"
     x="474.19681"
     y="348.62766"
     id="text4936"><tspan
       sodipodi:role="line"
       id="tspan4934"
       x="474.19681"
       y="348.62766"
       style="font-style:normal;font-variant:normal;font-weight:normal;font-stretch:normal;font-size:29.59066772px;font-family:'02うつくし明朝体';-inkscape-font-specification:'02うつくし明朝体, Normal';font-variant-ligatures:normal;font-variant-caps:normal;font-variant-numeric:normal;font-feature-settings:normal;text-align:start;writing-mode:lr-tb;text-anchor:start;stroke-width:0.99999994">貪欲な小説家たちに送るモノローグ</tspan></text>
  <rect
     y="593.03741"
     x="304.44217"
     height="454.45001"
     width="808.18604"
     id="rect4954"
     style="opacity:1;vector-effect:none;fill:none;fill-opacity:1;fill-rule:nonzero;stroke:#000000;stroke-width:0.49999997;stroke-linecap:butt;stroke-linejoin:round;stroke-miterlimit:4;stroke-dasharray:none;stroke-dashoffset:0;stroke-opacity:1;paint-order:markers fill stroke" />
</svg>
