<?xml version="1.0" encoding="UTF-8" standalone="no"?>
<svg
   xmlns:dc="http://purl.org/dc/elements/1.1/"
   xmlns:cc="http://creativecommons.org/ns#"
   xmlns:rdf="http://www.w3.org/1999/02/22-rdf-syntax-ns#"
   xmlns:svg="http://www.w3.org/2000/svg"
   xmlns="http://www.w3.org/2000/svg"
   xmlns:sodipodi="http://sodipodi.sourceforge.net/DTD/sodipodi-0.dtd"
   xmlns:inkscape="http://www.inkscape.org/namespaces/inkscape"
   width="1100"
   height="1000"
   viewBox="0 0 1100 1000"
   version="1.1"
   id="svg8"
   inkscape:version="1.0.2 (e86c870879, 2021-01-15, custom)"
   sodipodi:docname="母音三角形.svg"
   inkscape:export-filename="C:\Users\camellia\Desktop\母音三角形.png"
   inkscape:export-xdpi="96"
   inkscape:export-ydpi="96">
  <defs
     id="defs2">
    <marker
       style="overflow:visible"
       id="marker1133"
       refX="0"
       refY="0"
       orient="auto"
       inkscape:stockid="Arrow1Lstart"
       inkscape:isstock="true">
      <path
         transform="matrix(0.8,0,0,0.8,10,0)"
         style="fill:#000000;fill-opacity:1;fill-rule:evenodd;stroke:#000000;stroke-width:1pt;stroke-opacity:1"
         d="M 0,0 5,-5 -12.5,0 5,5 Z"
         id="path1131" />
    </marker>
    <marker
       style="overflow:visible"
       id="Arrow1Lstart"
       refX="0"
       refY="0"
       orient="auto"
       inkscape:stockid="Arrow1Lstart"
       inkscape:isstock="true">
      <path
         transform="matrix(0.8,0,0,0.8,10,0)"
         style="fill:#000000;fill-opacity:1;fill-rule:evenodd;stroke:#000000;stroke-width:1pt;stroke-opacity:1"
         d="M 0,0 5,-5 -12.5,0 5,5 Z"
         id="path855" />
    </marker>
  </defs>
  <sodipodi:namedview
     id="base"
     pagecolor="#ffffff"
     bordercolor="#666666"
     borderopacity="1.0"
     inkscape:pageopacity="0.0"
     inkscape:pageshadow="2"
     inkscape:zoom="0.35"
     inkscape:cx="524.87128"
     inkscape:cy="451.40638"
     inkscape:document-units="px"
     inkscape:current-layer="layer1"
     inkscape:document-rotation="0"
     showgrid="false"
     units="px"
     inkscape:snap-page="false"
     inkscape:snap-smooth-nodes="false"
     inkscape:snap-grids="true"
     inkscape:snap-to-guides="true"
     inkscape:snap-object-midpoints="true"
     inkscape:object-nodes="false"
     inkscape:snap-intersection-paths="false"
     inkscape:snap-midpoints="true"
     inkscape:window-width="1440"
     inkscape:window-height="847"
     inkscape:window-x="-8"
     inkscape:window-y="-8"
     inkscape:window-maximized="1"
     fit-margin-top="0"
     fit-margin-left="0"
     fit-margin-right="0"
     fit-margin-bottom="0" />
  <metadata
     id="metadata5">
    <rdf:RDF>
      <cc:Work
         rdf:about="">
        <dc:format>image/svg+xml</dc:format>
        <dc:type
           rdf:resource="http://purl.org/dc/dcmitype/StillImage" />
        <dc:title></dc:title>
      </cc:Work>
    </rdf:RDF>
  </metadata>
  <g
     inkscape:label="レイヤー 1"
     inkscape:groupmode="layer"
     id="layer1"
     transform="translate(38.652359,-62.351089)">
    <g
       id="g1332">
      <rect
         style="fill:#ffffff;fill-opacity:1;stroke:none;stroke-width:5.00001;stroke-linecap:round;stroke-linejoin:round;stroke-miterlimit:4;stroke-dasharray:none;stroke-opacity:1;paint-order:markers fill stroke"
         id="rect1313"
         width="1100"
         height="1000"
         x="-38.652359"
         y="62.351089" />
      <g
         id="g1311">
        <path
           style="fill:none;fill-opacity:0.743151;stroke:#000000;stroke-width:5;stroke-linecap:round;stroke-linejoin:round;stroke-miterlimit:4;stroke-dasharray:none;stroke-opacity:1;paint-order:markers fill stroke"
           d="M 931.42773,136.22266 H 71.166016"
           id="path1247" />
        <path
           style="fill:none;fill-opacity:0.743151;stroke:#000000;stroke-width:5;stroke-linecap:round;stroke-linejoin:round;stroke-miterlimit:4;stroke-dasharray:none;stroke-opacity:1;paint-order:markers fill stroke"
           d="M 784.93359,508.72656 965.71484,195.60742"
           id="path1245" />
        <path
           style="fill:none;fill-opacity:0.743151;stroke:#000000;stroke-width:5;stroke-linecap:round;stroke-linejoin:round;stroke-miterlimit:4;stroke-dasharray:none;stroke-opacity:1;paint-order:markers fill stroke"
           d="M 535.58203,940.61523 716.36328,627.49414"
           id="path1243" />
        <path
           style="fill:none;fill-opacity:0.743151;stroke:#000000;stroke-width:5;stroke-linecap:round;stroke-linejoin:round;stroke-miterlimit:4;stroke-dasharray:none;stroke-opacity:1;paint-order:markers fill stroke"
           d="M 286.23047,627.49414 467.01172,940.61523"
           id="path1241" />
        <path
           style="fill:none;fill-opacity:0.743151;stroke:#000000;stroke-width:5;stroke-linecap:round;stroke-linejoin:round;stroke-miterlimit:4;stroke-dasharray:none;stroke-opacity:1;paint-order:markers fill stroke"
           d="M 36.880859,195.60547 217.66016,508.72656"
           id="path847" />
        <g
           aria-label="i"
           id="text851"
           style="font-style:normal;font-variant:normal;font-weight:normal;font-stretch:normal;font-size:120px;line-height:1.25;font-family:'02うつくし明朝体';-inkscape-font-specification:'02うつくし明朝体, Normal';font-variant-ligatures:normal;font-variant-caps:normal;font-variant-numeric:normal;font-variant-east-asian:normal;text-align:center;letter-spacing:0px;word-spacing:0px;text-anchor:middle;stroke-width:1">
          <path
             d="m 16.875284,177.02218 c 0,-1.08 -0.6,-1.68 -1.92,-1.68 -2.28,-0.12 -4.08,-0.48 -5.5199996,-0.96 -1.8,-0.84 -2.76,-3 -2.76,-6.6 v -46.8 c 0,-1.32 -0.72,-1.92 -2.04,-1.68 -4.55999997,0.84 -9.36,1.32 -14.4,1.44 -1.3200004,0.12 -1.9200004,0.72 -1.9200004,1.8 0,1.32 0.6,1.92 1.9200004,1.92 2.76,0.12 4.68,0.36 5.64,0.72 1.92,0.72 2.88,2.88 2.88,6.72 v 35.88 c 0,3.84 -1.32,6.12 -3.96,6.84 -1.32,0.36 -2.88,0.6 -4.56,0.72 -1.3200004,0 -1.9200004,0.6 -1.9200004,1.56 0,1.2 0.6,1.8 1.9200004,1.8 H 14.955284 c 1.32,0 1.92,-0.6 1.92,-1.68 z M 2.7152844,93.742176 c -3.96,0 -6,2.04 -6,6.12 0,4.080004 2.04,6.000004 6,6.000004 4.08,0 6.12,-1.92 6.12,-6.000004 0,-1.68 -0.6,-3 -1.8,-4.32 -1.2,-1.2 -2.64,-1.8 -4.32,-1.8 z"
             style="font-style:normal;font-variant:normal;font-weight:normal;font-stretch:normal;font-size:120px;font-family:'02うつくし明朝体';-inkscape-font-specification:'02うつくし明朝体, Normal';font-variant-ligatures:normal;font-variant-caps:normal;font-variant-numeric:normal;font-variant-east-asian:normal;stroke-width:1"
             id="path1284" />
        </g>
        <g
           aria-label="a"
           id="text1163"
           style="font-style:normal;font-variant:normal;font-weight:normal;font-stretch:normal;font-size:120px;line-height:1.25;font-family:'02うつくし明朝体';-inkscape-font-specification:'02うつくし明朝体, Normal';font-variant-ligatures:normal;font-variant-caps:normal;font-variant-numeric:normal;font-variant-east-asian:normal;text-align:center;letter-spacing:0px;word-spacing:0px;text-anchor:middle;stroke-width:1">
          <path
             d="m 511.59366,1013.92 c -1.08,3.24 -2.88,6 -5.4,7.92 -3.72,3 -7.92,4.32 -12.6,4.32 -3.48,0 -6.24,-1.08 -8.52,-3.36 -2.4,-2.28 -3.48,-5.28 -3.48,-9 0,-9.84 8.28,-15.36 24.96,-16.08 l 5.04,-0.24 z m 17.16,9.72 c -0.84,-0.6 -1.44,-0.24 -2.28,0.84 -0.96,1.32 -2.04,1.92 -3.24,1.92 -2.76,0 -4.08,-3.96 -4.08,-12 v -24.36 c 0,-14.04 -7.08,-21 -21.12,-21 -6,0 -11.28,1.56 -15.6,4.92 -3.72,2.76 -5.52,5.76 -5.52,9 0,3.96 1.92,5.88 5.76,5.88 3.6,0 5.28,-1.68 5.28,-5.16 0,-2.52 -1.08,-3.96 -3.36,-4.32 2.28,-4.2 6.6,-6.24 12.84,-6.24 9.36,0 14.16,6 14.16,18 v 2.16 l -6.12,0.36 c -21.48,1.2 -32.28,8.28 -32.28,20.88 0,5.16 1.92,9.24 5.64,12.24 3.48,2.88 7.92,4.2 13.2,4.2 8.76,0 15.48,-3.48 20.4,-10.56 0.24,6.96 3.12,10.2 8.76,10.2 3.36,0 6,-1.44 7.92,-4.56 0.48,-0.96 0.36,-1.8 -0.36,-2.4 z"
             style="font-style:normal;font-variant:normal;font-weight:normal;font-stretch:normal;font-size:120px;font-family:'02うつくし明朝体';-inkscape-font-specification:'02うつくし明朝体, Normal';font-variant-ligatures:normal;font-variant-caps:normal;font-variant-numeric:normal;font-variant-east-asian:normal;stroke-width:1"
             id="path1293" />
        </g>
        <g
           aria-label="u"
           id="text1169"
           style="font-style:normal;font-variant:normal;font-weight:normal;font-stretch:normal;font-size:120px;line-height:1.25;font-family:'02うつくし明朝体';-inkscape-font-specification:'02うつくし明朝体, Normal';font-variant-ligatures:normal;font-variant-caps:normal;font-variant-numeric:normal;font-variant-east-asian:normal;text-align:center;letter-spacing:0px;word-spacing:0px;text-anchor:middle;stroke-width:1">
          <path
             d="m 1034.38,163.06804 c 0,-1.08 -0.72,-1.68 -1.92,-1.68 -2.28,-0.12 -4.08,-0.36 -5.28,-0.84 -2.28,-0.84 -3.48,-3.12 -3.48,-6.72 v -46.8 c 0,-1.32 -0.72,-1.92 -2.04,-1.68 -4.8,0.84 -9.6,1.32 -14.28,1.44 -1.32,0.12 -1.92,0.72 -1.92,1.8 0,1.32 0.6,1.92 1.92,1.92 2.88,0.12 4.68,0.36 5.64,0.72 1.92,0.84 2.88,3 2.88,6.6 v 28.32 c -1.32,4.92 -3.72,9 -7.2,11.76 -3.48,2.88 -7.44,4.2 -11.52,4.2 -8.88,0 -13.32,-6.12 -13.32,-18.24 v -36.84 c 0,-1.32 -0.72,-1.92 -2.04,-1.68 -4.32,0.84 -9.12,1.32 -14.28,1.44 -1.32,0.12 -1.92,0.72 -1.92,1.92 0,1.2 0.6,1.8 1.92,1.92 2.76,0.12 4.68,0.24 5.76,0.6 1.8,0.48 2.64,2.76 2.64,6.72 v 27.72 c 0,14.28 6.6,21.48 19.8,21.48 8.76,0 15.48,-4.08 20.28,-12.12 l 0.48,7.92 c 0,1.2 0.72,1.8 1.92,1.8 h 14.04 c 1.2,0 1.92,-0.6 1.92,-1.68 z"
             style="font-style:normal;font-variant:normal;font-weight:normal;font-stretch:normal;font-size:120px;font-family:'02うつくし明朝体';-inkscape-font-specification:'02うつくし明朝体, Normal';font-variant-ligatures:normal;font-variant-caps:normal;font-variant-numeric:normal;font-variant-east-asian:normal;stroke-width:1"
             id="path1281" />
        </g>
        <g
           aria-label="o"
           id="text1175"
           style="font-style:normal;font-variant:normal;font-weight:normal;font-stretch:normal;font-size:120px;line-height:1.25;font-family:'02うつくし明朝体';-inkscape-font-specification:'02うつくし明朝体, Normal';font-variant-ligatures:normal;font-variant-caps:normal;font-variant-numeric:normal;font-variant-east-asian:normal;text-align:center;letter-spacing:0px;word-spacing:0px;text-anchor:middle;stroke-width:1">
          <path
             d="m 750.58882,541.29107 c 5.76,0 10.32,2.16 13.92,6.84 3.84,4.92 5.76,11.52 5.76,20.04 0,6.48 -1.32,12.12 -3.96,17.04 -3.36,6.24 -8.52,9.36 -15.72,9.36 -5.64,0 -10.32,-2.16 -13.8,-6.72 -3.84,-4.8 -5.76,-11.4 -5.76,-19.8 0,-7.92 1.8,-14.4 5.28,-19.32 3.6,-5.04 8.4,-7.44 14.28,-7.44 z m 0,-4.2 c -7.8,0 -14.4,2.64 -19.68,7.92 -5.76,5.88 -8.76,13.44 -8.76,23.04 0,9.72 2.88,17.4 8.64,23.16 5.28,5.28 12,7.92 19.8,7.92 7.92,0 14.52,-2.64 19.92,-7.92 5.76,-5.76 8.64,-13.56 8.64,-23.4 0,-9.36 -2.88,-16.92 -8.64,-22.68 -5.28,-5.4 -12,-8.04 -19.92,-8.04 z"
             style="font-style:normal;font-variant:normal;font-weight:normal;font-stretch:normal;font-size:120px;font-family:'02うつくし明朝体';-inkscape-font-specification:'02うつくし明朝体, Normal';font-variant-ligatures:normal;font-variant-caps:normal;font-variant-numeric:normal;font-variant-east-asian:normal;stroke-width:1"
             id="path1290" />
        </g>
        <g
           aria-label="e"
           id="text1182"
           style="font-style:normal;font-variant:normal;font-weight:normal;font-stretch:normal;font-size:120px;line-height:1.25;font-family:'02うつくし明朝体';-inkscape-font-specification:'02うつくし明朝体, Normal';font-variant-ligatures:normal;font-variant-caps:normal;font-variant-numeric:normal;font-variant-east-asian:normal;text-align:center;letter-spacing:0px;word-spacing:0px;text-anchor:middle;stroke-width:1">
          <path
             d="m 233.88647,561.93108 c 0.6,-5.52 2.28,-9.96 4.92,-13.44 3.72,-4.8 8.4,-7.2 13.92,-7.2 4.68,0 8.76,1.44 11.88,4.56 3.84,3.84 5.76,9.24 6,16.08 z m 44.88,2.4 c 0,-8.16 -2.76,-14.76 -7.68,-19.92 -4.68,-4.8 -10.68,-7.2 -18.24,-7.2 -7.68,0 -14.04,2.64 -19.08,7.68 -5.64,5.76 -8.64,13.56 -8.64,23.52 0,9.36 2.64,16.92 8.16,22.44 5.4,5.4 12.36,8.16 20.64,8.16 10.68,0 18.6,-4.56 23.76,-13.68 0.6,-1.08 0.36,-1.92 -0.6,-2.64 l -0.24,-0.24 c -1.08,-0.72 -1.92,-0.6 -2.64,0.48 -4.56,7.2 -10.92,10.8 -18.84,10.8 -5.76,0 -10.68,-1.92 -14.64,-6 -4.92,-4.8 -7.2,-11.28 -7.2,-19.2 v -2.04 h 43.32 c 1.32,0 1.92,-0.36 1.92,-1.08 z"
             style="font-style:normal;font-variant:normal;font-weight:normal;font-stretch:normal;font-size:120px;font-family:'02うつくし明朝体';-inkscape-font-specification:'02うつくし明朝体, Normal';font-variant-ligatures:normal;font-variant-caps:normal;font-variant-numeric:normal;font-variant-east-asian:normal;stroke-width:1"
             id="path1287" />
        </g>
      </g>
    </g>
  </g>
</svg>
